<?xml version="1.0" encoding="UTF-8" standalone="no"?>
<svg
   xmlns:dc="http://purl.org/dc/elements/1.1/"
   xmlns:cc="http://creativecommons.org/ns#"
   xmlns:rdf="http://www.w3.org/1999/02/22-rdf-syntax-ns#"
   xmlns:svg="http://www.w3.org/2000/svg"
   xmlns="http://www.w3.org/2000/svg"
   xmlns:sodipodi="http://sodipodi.sourceforge.net/DTD/sodipodi-0.dtd"
   xmlns:inkscape="http://www.inkscape.org/namespaces/inkscape"
   inkscape:version="1.0 (4035a4fb49, 2020-05-01)"
   sodipodi:docname="favicon.svg"
   viewBox="0 0 4000 4000"
   height="4000"
   width="4000"
   id="svg2"
   version="1.1">
  <metadata
     id="metadata8">
    <rdf:RDF>
      <cc:Work
         rdf:about="">
        <dc:format>image/svg+xml</dc:format>
        <dc:type
           rdf:resource="http://purl.org/dc/dcmitype/StillImage" />
        <dc:title />
      </cc:Work>
    </rdf:RDF>
  </metadata>
  <defs
     id="defs6" />
  <sodipodi:namedview
     inkscape:current-layer="g839"
     inkscape:window-maximized="1"
     inkscape:window-y="-8"
     inkscape:window-x="-8"
     inkscape:cy="2013.4292"
     inkscape:cx="1212.3922"
     inkscape:zoom="0.252"
     showgrid="false"
     id="namedview4"
     inkscape:window-height="1387"
     inkscape:window-width="2560"
     inkscape:pageshadow="2"
     inkscape:pageopacity="0"
     guidetolerance="10"
     gridtolerance="10"
     objecttolerance="10"
     borderopacity="1"
     bordercolor="#666666"
     pagecolor="#ffffff"
     inkscape:document-rotation="0" />
  <g
     id="g10"
     inkscape:label="Image"
     inkscape:groupmode="layer"
     style="display:inline">
    <g
       transform="translate(884.95981,1067.5386)"
       id="g839"
       style="display:inline">
      <circle
         r="1674.6031"
         cy="924.52478"
         cx="1122.9767"
         id="path867"
         style="display:inline;fill:#c8ff00;fill-opacity:1;stroke-width:3.94686;stroke-linecap:round;stroke-linejoin:round;stroke-opacity:0.995984;paint-order:markers stroke fill;stop-color:#000000" />
      <path
         sodipodi:nodetypes="cccccccccccccccccccccccccccc"
         d="M 1033.1588,2925.5856 C 323.8276,2903.6293 -350.70079,2467.0048 -665.23885,1832.3597 -999.0634,1189.3596 -938.07813,365.35004 -510.9694,-220.45771 c 388.45504,-556.27344 1075.93123,-885.64639 1753.6239,-835.95139 724.0611,37.6206 1401.8471,508.59439 1693.2957,1171.0075 298.7723,644.14022 211.3199,1444.9376 -219.0527,2009.953 -385.5118,522.5793 -1034.033,833.2851 -1683.7387,801.0342 z m 99.6764,-500.5642 c 90.7329,-788.2652 637.4279,-1084.7961 1291.1629,-1009.6326 24.7954,-322.008 -165.4846,-651.62307 -456.1169,-787.85858 -209.841,673.17778 -829.1468,752.14218 -1226.00207,716.09188 -92.90923,342.4884 -199.2377,736.2657 -290.53281,1078.9599 226.73308,0.1945 456.7015,4.9715 681.48888,2.4394 z M 2371.4283,1654.786 c -436.3007,-134.6529 -904.7073,231.4751 -918.0113,530.3629 358.1831,37.0631 754.3342,-143.2341 918.0113,-530.3629 z M 486.97985,1317.9266 C 569.88594,446.5978 1242.0627,209.34602 1778.143,308.29401 1802.9382,-13.714011 1612.6581,-343.32897 1322.0261,-479.56449 1207.1291,71.565624 572.09672,308.06988 103.04714,241.75697 9.2068465,587.51515 -102.31199,969.51518 -194.50888,1315.4872 c 226.733017,0.1945 456.70163,4.9715 681.48873,2.4394 z M 1719.0514,552.57829 C 1398.1407,459.74038 913.06707,656.94164 801.95346,1085.4377 1264.4967,1177.5974 1643.5585,900.08235 1719.0514,552.57829 Z M 1079.6841,-557.05263 C 618.32172,-637.23604 243.13532,-318.90541 156.09823,-21.656886 615.28124,72.759071 998.21313,-267.56071 1079.6841,-557.05263 Z"
         style="display:inline;fill:#000000;fill-opacity:1;stroke-width:1.08491"
         id="path841" />
    </g>
  </g>
</svg>
