<?xml version="1.0" encoding="UTF-8" standalone="no"?>
<svg
   xmlns:dc="http://purl.org/dc/elements/1.1/"
   xmlns:cc="http://creativecommons.org/ns#"
   xmlns:rdf="http://www.w3.org/1999/02/22-rdf-syntax-ns#"
   xmlns:svg="http://www.w3.org/2000/svg"
   xmlns="http://www.w3.org/2000/svg"
   xmlns:sodipodi="http://sodipodi.sourceforge.net/DTD/sodipodi-0.dtd"
   xmlns:inkscape="http://www.inkscape.org/namespaces/inkscape"
   width="800px"
   height="800px"
   viewBox="0 0 24 24"
   fill="none"
   version="1.1"
   id="svg4"
   sodipodi:docname="web.svg"
   inkscape:version="1.0 (4035a4fb49, 2020-05-01)">
  <metadata
     id="metadata10">
    <rdf:RDF>
      <cc:Work
         rdf:about="">
        <dc:format>image/svg+xml</dc:format>
        <dc:type
           rdf:resource="http://purl.org/dc/dcmitype/StillImage" />
      </cc:Work>
    </rdf:RDF>
  </metadata>
  <defs
     id="defs8" />
  <sodipodi:namedview
     inkscape:document-rotation="0"
     pagecolor="#ffffff"
     bordercolor="#666666"
     borderopacity="1"
     objecttolerance="10"
     gridtolerance="10"
     guidetolerance="10"
     inkscape:pageopacity="0"
     inkscape:pageshadow="2"
     inkscape:window-width="2560"
     inkscape:window-height="1387"
     id="namedview6"
     showgrid="false"
     inkscape:zoom="0.89095454"
     inkscape:cx="353.64753"
     inkscape:cy="414.4646"
     inkscape:window-x="-8"
     inkscape:window-y="-8"
     inkscape:window-maximized="1"
     inkscape:current-layer="svg4" />
  <path
     sodipodi:nodetypes="cccccccsccccscscscscscsccscccsccccccsccscccccccccccccccccsssss"
     fill-rule="evenodd"
     clip-rule="evenodd"
     d="m 9.6094823,19.86967 c 0.1902674,0.356626 0.3808002,0.677978 0.5629287,0.962726 -1.9350192,-0.435139 -3.6140854,-1.5466 -4.7759485,-3.073074 0.7668088,-0.431822 1.748932,-0.879459 2.9296271,-1.207002 0.3355721,1.316147 0.8089959,2.427828 1.2833927,3.31735 z m 1.4636187,-0.780599 c -0.412139,-0.772637 -0.825162,-1.737575 -1.1227386,-2.880883 0.6406016,-0.0951 1.3244406,-0.149949 2.0497486,-0.149949 0.725197,0 1.409035,0.05485 2.049527,0.149839 -0.297576,1.143418 -0.7106,2.108356 -1.122739,2.880993 C 12.596479,19.708662 12.267276,20.203295 12,20.56523 11.732724,20.203295 11.403521,19.708662 11.073101,19.089071 Z M 9.5119047,12.740779 c 0,0.645909 0.043459,1.258976 0.1200921,1.837762 0.7390192,-0.113346 1.5291282,-0.179032 2.3681142,-0.179032 0.838875,0 1.628983,0.06558 2.367892,0.179032 0.07663,-0.578896 0.120092,-1.191853 0.120092,-1.837762 0,-0.645909 -0.04346,-1.258866 -0.120092,-1.837762 -0.738909,0.113346 -1.529017,0.179032 -2.367892,0.179032 -0.838986,0 -1.629095,-0.06569 -2.3681142,-0.179032 -0.076633,0.578786 -0.1200921,1.191853 -0.1200921,1.837762 z M 8.0045392,10.560986 c -0.096328,0.684503 -0.1513646,1.41169 -0.1513646,2.179793 0,0.768103 0.055037,1.49529 0.1513646,2.179792 -1.4082618,0.37808 -2.5744155,0.911196 -3.4763003,1.424186 -0.5266578,-1.089786 -0.8218897,-2.312381 -0.8218897,-3.603978 0,-1.291598 0.2952319,-2.514149 0.8218787,-3.6040009 0.9017852,0.5129236 2.0679609,1.0460839 3.4763113,1.4242079 z M 9.9503624,9.2734243 c 0.6406016,0.095067 1.3244406,0.1498938 2.0497486,0.1498938 0.725197,0 1.409035,-0.054816 2.049527,-0.1498717 -0.297576,-1.1433296 -0.7106,-2.1082903 -1.122739,-2.88096 C 12.596479,5.7729397 12.267276,5.2782178 12,4.9163493 11.732724,5.2782178 11.403521,5.7729397 11.073101,6.3924643 10.660962,7.165134 10.247939,8.1300947 9.9503624,9.2734243 Z m 6.0450756,1.2876717 c 0.09632,0.684504 0.151387,1.411691 0.151387,2.179683 0,0.768103 -0.05507,1.495179 -0.151387,2.179682 1.408262,0.37819 2.574461,0.911306 3.476367,1.424296 0.526592,-1.089896 0.821846,-2.312491 0.821846,-3.603978 0,-1.291487 -0.295254,-2.514116 -0.821846,-3.6039456 -0.901796,0.5129235 -2.067994,1.0460726 -3.476367,1.4242626 z M 18.603516,7.7223235 C 17.836629,8.1541795 16.85455,8.6017492 15.673976,8.9293262 15.33836,7.6131349 14.864959,6.5013986 14.390562,5.6119101 14.20025,5.2552278 14.009717,4.933965 13.827589,4.649161 c 1.935074,0.4351734 3.614152,1.5466663 4.775927,3.0731625 z M 8.3260786,8.929293 C 7.1454608,8.6017049 6.1633709,8.1541352 5.3964736,7.7222682 6.5583256,6.1958052 8.2373918,5.0843344 10.1723,4.649161 9.9902825,4.933965 9.7997497,5.2552168 9.6094712,5.611888 9.1350855,6.5013765 8.6616617,7.6131017 8.3260786,8.929293 Z m 7.3478974,7.622916 c -0.335616,1.316258 -0.809017,2.427939 -1.283414,3.317461 -0.190312,0.356626 -0.380845,0.677978 -0.562973,0.962726 1.935074,-0.435139 3.614152,-1.54671 4.776037,-3.073184 -0.766886,-0.431823 -1.748965,-0.879349 -2.92965,-1.207003 z M 12,22.69316 c 5.496589,0 9.952381,-4.455792 9.952381,-9.952381 0,-5.4965457 -4.455792,-9.9523815 -9.952381,-9.9523815 -5.4965452,0 -9.952381,4.4558358 -9.952381,9.9523815 0,5.496589 4.4558358,9.952381 9.952381,9.952381 z"
     fill="#080341"
     id="path2"
     style="fill:#000000;fill-opacity:1;stroke-width:1.3254" />
</svg>
