<?xml version="1.0" encoding="UTF-8" standalone="no"?>
<svg
   xmlns:dc="http://purl.org/dc/elements/1.1/"
   xmlns:cc="http://creativecommons.org/ns#"
   xmlns:rdf="http://www.w3.org/1999/02/22-rdf-syntax-ns#"
   xmlns:svg="http://www.w3.org/2000/svg"
   xmlns="http://www.w3.org/2000/svg"
   xmlns:sodipodi="http://sodipodi.sourceforge.net/DTD/sodipodi-0.dtd"
   xmlns:inkscape="http://www.inkscape.org/namespaces/inkscape"
   version="1.1"
   id="svg2"
   width="1024"
   height="1024"
   viewBox="0 0 1024 1024"
   sodipodi:docname="ChatGPT Image Mar 16, 2026, 11_31_07 PM.svg"
   inkscape:version="1.0 (4035a4fb49, 2020-05-01)">
  <metadata
     id="metadata8">
    <rdf:RDF>
      <cc:Work
         rdf:about="">
        <dc:format>image/svg+xml</dc:format>
        <dc:type
           rdf:resource="http://purl.org/dc/dcmitype/StillImage" />
        <dc:title />
      </cc:Work>
    </rdf:RDF>
  </metadata>
  <defs
     id="defs6" />
  <sodipodi:namedview
     inkscape:document-rotation="0"
     pagecolor="#ffffff"
     bordercolor="#666666"
     borderopacity="1"
     objecttolerance="10"
     gridtolerance="10"
     guidetolerance="10"
     inkscape:pageopacity="0"
     inkscape:pageshadow="2"
     inkscape:window-width="2560"
     inkscape:window-height="1387"
     id="namedview4"
     showgrid="false"
     inkscape:zoom="0.69605824"
     inkscape:cx="535.72307"
     inkscape:cy="482.07466"
     inkscape:window-x="-8"
     inkscape:window-y="-8"
     inkscape:window-maximized="1"
     inkscape:current-layer="g10" />
  <g
     inkscape:groupmode="layer"
     inkscape:label="Image"
     id="g10">
    <g
       id="g837"
       transform="translate(-1430.3492,81.269841)"
       style="display:inline">
      <path
         d="m 1900.5344,934.31139 c -205.927,-14.83808 -392.84,-166.72637 -449.3273,-365.3491 -52.5758,-178.71502 6.2658,-383.36904 145.6744,-507.014353 134.0662,-125.918473 338.389,-168.744337 511.6529,-107.139333 198.8163,65.650097 348.2321,264.049546 345.0323,475.024036 6.0816,216.6045 -150.7096,419.79417 -355.9829,482.21989 -63.4199,21.19639 -130.6364,25.77419 -197.0494,22.25886 z M 1532.4921,658.78636 c -29.2538,-72.04677 -42.917,-151.28827 -35.4131,-228.86685 33.9308,74.47841 84.7646,142.38226 151.24,190.58361 -26.5828,-43.17893 -35.0554,-94.90127 -83.6398,-118.91309 -61.2894,-66.33336 -58.718,-167.32822 -22.2632,-245.08319 68.6977,-155.6786 235.9633,-266.2562818 407.3829,-256.47199991 40.647,-5.66097909 68.0362,38.39078491 17.9944,50.57860291 -37.0046,17.237505 -113.9976,31.873684 -126.3686,55.523777 48.0154,-15.611914 98.721,-12.98433 148.205,-13.820426 88.9134,-16.576508 180.2945,21.048176 246.5388,78.960166 -38.6527,-54.30483 -98.4119,-91.600592 -160.3362,-115.751896 -30.5798,-8.564285 -37.6106,-42.910219 2.553,-29.07084 123.464,27.245469 222.2894,126.440396 272.6097,239.620986 24.4144,58.38013 35.2052,121.49345 45.0384,183.60002 6.1407,61.77324 -5.1064,123.60119 -24.533,182.0606 90.1709,-172.43592 46.2858,-398.75158 -94.0918,-531.55657 C 2140.7301,-39.126472 1914.8219,-78.562058 1739.6879,8.1120471 1561.0867,90.33115 1443.6251,292.04493 1471.4931,488.43152 c 7.9655,63.14451 28.4256,126.74463 63.5724,179.33825 l 0.113,-1.50173 z m 193.0423,-14.86404 c 97.9161,-73.18448 103.4868,-224.33988 34.4953,-318.99891 -25.9831,-26.17637 -41.6634,-76.62201 -44.8205,-103.73048 -35.0362,26.81404 -50.6902,61.05419 -9.6445,91.16386 52.3769,65.365 81.8998,158.09503 45.0031,237.88848 -3.8803,41.21103 -87.3259,67.72608 -32.6824,99.28587 z m 467.251,-24.22021 c 35.6499,-38.0629 -48.0997,-69.17062 -50.1332,-113.74746 -37.5558,-84.01855 -15.1247,-189.62567 54.882,-249.93907 -20.5771,-59.67991 -55.066,5.89185 -73.5818,29.39694 -56.6276,86.39753 -48.1221,206.35294 15.2544,286.94503 10.9407,8.10698 40.3594,78.15876 53.5786,47.34456 z"
         style="display:inline;fill:#f3f115"
         id="path853" />
      <path
         d="m 1900.5344,934.31139 c -205.927,-14.83808 -392.84,-166.72637 -449.3273,-365.3491 -52.5758,-178.71502 6.2658,-383.36904 145.6744,-507.014353 134.0662,-125.918473 338.389,-168.744337 511.6529,-107.139333 198.8163,65.650097 348.2321,264.049546 345.0323,475.024036 6.0816,216.6045 -150.7096,419.79417 -355.9829,482.21989 -63.4199,21.19639 -130.6364,25.77419 -197.0494,22.25886 z m 32.7764,-195.68149 c -17.923,-1.42318 -3.376,1.41123 0,0 z m 25.4736,0.003 c -14.4299,-1.41954 -2.8595,1.43043 0,0 z m -60.981,-2.93254 c -6.6643,-1.82409 -1.2026,1.81727 0,0 z m 92.4602,0.0518 c -3.9598,-2.10137 -0.9346,2.25339 0,0 z m -110.0625,-3.0625 c -2.905,-1.51778 -0.3138,2.14732 0,0 z m -7,-1 c -2.905,-1.51778 -0.3138,2.14732 0,0 z m 139,0 c -2.905,-1.51778 -0.3138,2.14732 0,0 z m -149.9375,-2.9375 c -3.9598,-2.10137 -0.9346,2.25339 0,0 z m 161.9375,-0.0625 c -2.905,-1.51778 -0.3138,2.14732 0,0 z m -177,-4 c -2.905,-1.51778 -0.3138,2.14732 0,0 z m 192.0625,0.0625 c -3.9598,-2.10137 -0.9346,2.25339 0,0 z m 3.2708,-0.89537 c -1.2775,-1.79373 -1.2775,1.79373 0,0 z m -204.3333,-2.16667 c -2.9048,-1.51748 -0.3143,2.14599 0,0 z m 209,0 c -2.9048,-1.51748 -0.3143,2.14599 0,0 z m -213,-1 c -2.9048,-1.51748 -0.3143,2.14599 0,0 z m 216.3333,0.16667 c -1.2775,-1.79373 -1.2775,1.79373 0,0 z m -220,-2 c -1.2775,-1.79373 -1.2775,1.79373 0,0 z m -3.3333,-1.16667 c -2.9048,-1.51748 -0.3143,2.14599 0,0 z m 231,0 c -2.9048,-1.51748 -0.3143,2.14599 0,0 z m -234.6667,-0.83333 c -1.2775,-1.79373 -1.2775,1.79373 0,0 z m -4,-2 c -1.2775,-1.79373 -1.2775,1.79373 0,0 z m 248.6667,-1.16667 c -2.9048,-1.51748 -0.3143,2.14599 0,0 z m 6.3333,-2.83333 c -1.2775,-1.79373 -1.2775,1.79373 0,0 z m 6,-3 c -1.2775,-1.79373 -1.2775,1.79373 0,0 z m -279,-1 c -1.2775,-1.79373 -1.2775,1.79373 0,0 z m 281.6667,-0.16667 c -2.9048,-1.51748 -0.3143,2.14599 0,0 z m -289.6667,-3.83333 c -1.2775,-1.79373 -1.2775,1.79373 0,0 z m -5,-3 c -1.2775,-1.79373 -1.2775,1.79373 0,0 z m 308,0 c -1.2775,-1.79373 -1.2775,1.79373 0,0 z m -310.3333,-1.16667 c -2.9048,-1.51748 -0.3143,2.14599 0,0 z m -2.6667,-1.83333 c -1.2775,-1.79373 -1.2775,1.79373 0,0 z m 318,0 c -1.2775,-1.79373 -1.2775,1.79373 0,0 z m -320.3333,-1.16667 c -2.9048,-1.51748 -0.3143,2.14599 0,0 z m 323,0 c -2.9048,-1.51748 -0.3143,2.14599 0,0 z m -325.6667,-0.83333 c -1.2775,-1.79373 -1.2775,1.79373 0,0 z m -2,-2 c -1.2775,-1.79373 -1.2775,1.79373 0,0 z m -2,-1 c -1.2775,-1.79373 -1.2775,1.79373 0,0 z m 335,0 c -1.2775,-1.79373 -1.2775,1.79373 0,0 z m -340,-3 c -1.2775,-1.79373 -1.2775,1.79373 0,0 z m 346,-1 c -1.2775,-1.79373 -1.2775,1.79373 0,0 z m 3,-3 c -1.2775,-1.79373 -1.2775,1.79373 0,0 z m -178,-3.43823 c 65.2494,-7.48902 129.6999,-35.04664 176.0726,-82.23983 -39.699,-55.95696 -70.4591,-121.89838 -65.2805,-192.21925 2.0251,-77.18983 38.5979,-152.53007 98.2079,-201.68955 -98.1748,-89.52764 -257.4447,-105.536867 -369.3795,-32.82058 -45.2708,31.47958 -27.6768,92.71083 2.9196,127.65704 77.2787,99.40033 78.7444,254.85113 -10.9876,347.05905 6.8176,26.49502 82.0312,34.69165 119.0135,36.84351 16.4989,-0.17376 33.0262,-0.77365 49.434,-2.59039 z m 182,-3.56177 c -1.2775,-1.79373 -1.2775,1.79373 0,0 z m 3,-5 c -1.2775,-1.79373 -1.2775,1.79373 0,0 z m -380,-1 c -1.2775,-1.79373 -1.2775,1.79373 0,0 z m 380.6667,-4.16667 c -2.1461,0.31425 1.5175,2.9047 0,0 z m -593.709,-8.90376 c -29.2538,-72.04677 -42.917,-151.28827 -35.4131,-228.86685 33.9308,74.47841 84.7646,142.38226 151.24,190.58361 -26.5828,-43.17893 -35.0554,-94.90127 -83.6398,-118.91309 -61.2894,-66.33336 -58.718,-167.32822 -22.2632,-245.08319 68.6977,-155.6786 235.9633,-266.2562818 407.3829,-256.47199991 40.647,-5.66097909 68.0362,38.39078491 17.9944,50.57860291 -37.0046,17.237505 -113.9976,31.873684 -126.3686,55.523777 48.0154,-15.611914 98.721,-12.98433 148.205,-13.820426 88.9134,-16.576508 180.2945,21.048176 246.5388,78.960166 -38.6527,-54.30483 -98.4119,-91.600592 -160.3362,-115.751896 -30.5798,-8.564285 -37.6106,-42.910219 2.553,-29.07084 123.464,27.245469 222.2894,126.440396 272.6097,239.620986 24.4144,58.38013 35.2052,121.49345 45.0384,183.60002 6.1407,61.77324 -5.1064,123.60119 -24.533,182.0606 90.1709,-172.43592 46.2858,-398.75158 -94.0918,-531.55657 C 2140.7301,-39.126472 1914.8219,-78.562058 1739.6879,8.1120471 1561.0867,90.33115 1443.6251,292.04493 1471.4931,488.43152 c 7.9655,63.14451 28.4256,126.74463 63.5724,179.33825 l 0.113,-1.50173 z m 596.7837,-17.64038 c -1.0571,15.07189 0.8504,16.74074 0,0 z m -403.7414,2.77634 c 97.9161,-73.18448 103.4868,-224.33988 34.4953,-318.99891 -25.9831,-26.17637 -41.6634,-76.62201 -44.8205,-103.73048 -98.4941,96.54399 -118.8325,264.84117 -37.1577,378.16898 17.3585,-5.33568 36.9131,4.89945 16.6993,24.8102 8.137,5.885 18.8688,35.67203 30.7836,19.75021 z m 440.5,4.43447 c 0.8589,-3.61273 -3.138,3.73591 0,0 z m 4,-4 c 0.8589,-3.61273 -3.138,3.73591 0,0 z m -4.8107,-6.75 c -1.6084,1.48709 1.5561,7.74545 0,0 z m 8.3107,3.25 c -1.2775,-1.79373 -1.2775,1.79373 0,0 z m 3,-3 c -1.2775,-1.79373 -1.2775,1.79373 0,0 z m 14.674,-16.25 c 47.93,-37.23027 -65.4298,-67.43349 -12.0317,-109.94961 35.2014,-73.18247 35.4094,-162.02273 -1.8785,-234.52562 30.3711,-12.82355 19.3236,-36.66264 -4.5356,-47.20831 -97.5606,77.87829 -114.7631,232.2841 -40.6757,331.82008 14.6551,11.9725 39.6531,83.52845 59.1215,59.86346 z m -26.981,4.01903 c -1.6584,1.27986 1.48,6.59093 0,0 z m -472.693,-8.26903 c -4.8362,-7.23379 2.5711,7.10813 0,0 z m -3,-4.44098 c -0.1049,-3.23405 -3.7558,0.7891 0,0 z m -4,-5.05902 c -1.2775,-1.79373 -1.2775,1.79373 0,0 z m -1,-2 c -1.2775,-1.79373 -1.2775,1.79373 0,0 z m 436,-1 c -1.2775,-1.79373 -1.2775,1.79373 0,0 z m 39,0 c -1.2775,-1.79373 -1.2775,1.79373 0,0 z m -40,-2 c -1.2775,-1.79373 -1.2775,1.79373 0,0 z m -438,-1 c -1.2775,-1.79373 -1.2775,1.79373 0,0 z m 529,-7 c -1.2775,-1.79373 -1.2775,1.79373 0,0 z m 1,-2 c -1.2775,-1.79373 -1.2775,1.79373 0,0 z m 3.3816,-5.05194 c -0.9915,-3.67792 -2.0581,5.09094 0,0 z m 3.6184,-5.94806 c -1.2775,-1.79373 -1.2775,1.79373 0,0 z m 14,-28 c -1.2775,-1.79373 -1.2775,1.79373 0,0 z m 3.6667,-11.16667 c -2.1461,0.31425 1.5175,2.9047 0,0 z m 4,-11 c -2.1461,0.31425 1.5175,2.9047 0,0 z m 7,-23 c -2.1461,0.31425 1.5175,2.9047 0,0 z m 4.3333,-16.83333 c -1.2775,-1.79373 -1.2775,1.79373 0,0 z m 2.6831,-17.6875 c -1.9252,0.43369 1.4328,4.38338 0,0 z m -3,-96 c -1.9252,0.43369 1.4328,4.38338 0,0 z m -3.6831,-18.3125 c -1.2775,-1.79373 -1.2775,1.79373 0,0 z m -3.3333,-10.16667 c -2.1461,0.31425 1.5175,2.9047 0,0 z m -1,-4 c -2.1461,0.31425 1.5175,2.9047 0,0 z m -2.6667,-7.83333 c -1.2775,-1.79373 -1.2775,1.79373 0,0 z m -8.3333,-22.16667 c -2.1461,0.31425 1.5175,2.9047 0,0 z m -2.6667,-5.83333 c -1.2775,-1.79373 -1.2775,1.79373 0,0 z m -8,-16 c -1.2775,-1.79373 -1.2775,1.79373 0,0 z m -3.3333,-6.16667 c -2.1461,0.31425 1.5175,2.9047 0,0 z m -10.6667,-17.83333 c -1.2775,-1.79373 -1.2775,1.79373 0,0 z"
         style="display:inline;fill:#d5d60e"
         id="path851" />
      <path
         d="m 1900.5344,934.31139 c -205.927,-14.83808 -392.84,-166.72637 -449.3273,-365.3491 -52.5758,-178.71502 6.2658,-383.36904 145.6744,-507.014353 134.0662,-125.918473 338.389,-168.744337 511.6529,-107.139333 198.8163,65.650097 348.2321,264.049546 345.0323,475.024036 6.0816,216.6045 -150.7096,419.79417 -355.9829,482.21989 -63.4199,21.19639 -130.6364,25.77419 -197.0494,22.25886 z m 69.0501,-194.99097 c 53.6255,-5.6141 110.8801,-20.33294 151.5007,-57.20254 27.4531,-46.32987 -9.7669,-94.16875 -34.2759,-132.2151 -65.0961,-110.38008 -36.1925,-264.86689 64.2251,-344.48537 -99.0183,-90.6203 -260.6342,-107.426519 -373.0281,-32.47589 -49.0483,37.00448 -20.1249,99.35027 10.7763,137.27905 79.7732,108.48214 65.5345,279.16126 -45.17,361.63622 62.4391,51.23435 145.915,74.0397 225.9719,67.46363 z m -437.0924,-80.53406 c -29.2538,-72.04677 -42.917,-151.28827 -35.4131,-228.86685 33.9308,74.47841 84.7646,142.38226 151.24,190.58361 -26.5828,-43.17893 -35.0554,-94.90127 -83.6398,-118.91309 -61.2894,-66.33336 -58.718,-167.32822 -22.2632,-245.08319 68.6977,-155.6786 235.9633,-266.2562818 407.3829,-256.47199991 40.647,-5.66097909 68.0362,38.39078491 17.9944,50.57860291 -37.0046,17.237505 -113.9976,31.873684 -126.3686,55.523777 48.0154,-15.611914 98.721,-12.98433 148.205,-13.820426 88.9134,-16.576508 180.2945,21.048176 246.5388,78.960166 -38.6527,-54.30483 -98.4119,-91.600592 -160.3362,-115.751896 -30.5798,-8.564285 -37.6106,-42.910219 2.553,-29.07084 123.464,27.245469 222.2894,126.440396 272.6097,239.620986 24.4144,58.38013 35.2052,121.49345 45.0384,183.60002 6.1407,61.77324 -5.1064,123.60119 -24.533,182.0606 90.1709,-172.43592 46.2858,-398.75158 -94.0918,-531.55657 C 2140.7301,-39.126472 1914.8219,-78.562058 1739.6879,8.1120471 1561.0867,90.33115 1443.6251,292.04493 1471.4931,488.43152 c 7.9655,63.14451 28.4256,126.74463 63.5724,179.33825 l 0.113,-1.50173 z m 657.6268,-35.92957 c 89.6816,-105.98406 87.9649,-273.92724 -1.9337,-379.31389 -21.7954,-39.81285 -51.151,30.89582 -67.3433,46.85342 -55.337,88.79951 -42.0797,208.74429 22.9348,288.95739 24.5538,19.1909 8.2985,102.09101 41.6836,49.19638 z m -464.5845,21.06553 c 97.9161,-73.18448 103.4868,-224.33988 34.4953,-318.99891 -25.9774,-26.17028 -41.6755,-76.63588 -44.8143,-103.72717 -101.3209,97.39348 -119.033,268.59008 -35.5817,382.72114 12.7786,10.19625 27.4748,54.37382 45.9007,40.00494 z"
         style="display:inline;fill:#f74371"
         id="path849" />
      <path
         d="m 1900.5344,934.31139 c -205.927,-14.83808 -392.84,-166.72637 -449.3273,-365.3491 -52.5758,-178.71502 6.2658,-383.36904 145.6744,-507.014353 134.0662,-125.918473 338.389,-168.744337 511.6529,-107.139333 198.8163,65.650097 348.2321,264.049546 345.0323,475.024036 6.0816,216.6045 -150.7096,419.79417 -355.9829,482.21989 -63.4199,21.19639 -130.6364,25.77419 -197.0494,22.25886 z m 68.4352,-35.84982 c -46.1391,-9.71606 -104.0044,-20.99661 -128.7045,-67.06233 -7.9629,-50.30682 76.8772,-45.84501 82.1147,-57.02714 -142.1158,-5.01678 -273.1956,-106.03527 -315.5902,-241.53449 -85.4654,-43.4047 -108.7402,-156.04369 -77.3681,-240.84048 56.2319,-174.41454 236.6252,-302.328906 420.3774,-291.96228991 40.647,-5.66097909 68.0362,38.39078491 17.9944,50.57860291 -37.0046,17.237505 -113.9976,31.873684 -126.3686,55.523777 132.1003,-39.449858 284.6603,5.50475 371.2461,113.54722 49.5567,57.0773 74.2688,131.08734 80.8405,205.43201 8.1227,22.39115 12.7158,80.57925 27.1545,24.95972 24.8268,-41.95093 6.2541,-126.34177 20.5446,-148.21938 62.0908,75.48715 65.0139,182.64741 46.0304,274.47494 -5.2712,21.8779 -26.2913,82.675 -3.0821,29.80254 72.6504,-169.69902 26.8012,-379.34704 -106.7501,-505.95501 C 2140.7301,-39.126472 1914.8219,-78.562058 1739.6879,8.1120471 1561.0867,90.33115 1443.6251,292.04493 1471.4931,488.43152 c 24.8056,223.51282 231.2853,409.01077 455.9858,410.69257 13.8282,0.003 27.6927,0.46705 41.4907,-0.66252 z m 0.6149,-159.14115 c 53.6255,-5.6141 110.8801,-20.33294 151.5007,-57.20254 27.4531,-46.32987 -9.7669,-94.16875 -34.2759,-132.2151 -65.0961,-110.38008 -36.1925,-264.86689 64.2251,-344.48537 -99.0183,-90.6203 -260.6342,-107.426519 -373.0281,-32.47589 -49.0483,37.00448 -20.1249,99.35027 10.7763,137.27905 79.7732,108.48214 65.5345,279.16126 -45.17,361.63622 62.4391,51.23435 145.915,74.0397 225.9719,67.46363 z m 220.5344,-116.46363 c 89.6816,-105.98406 87.9649,-273.92724 -1.9337,-379.31389 -21.7954,-39.81285 -51.151,30.89582 -67.3433,46.85342 -55.337,88.79951 -42.0797,208.74429 22.9348,288.95739 24.5538,19.1909 8.2985,102.09101 41.6836,49.19638 z m -464.5845,21.06553 c 97.9161,-73.18448 103.4868,-224.33988 34.4953,-318.99891 -25.9774,-26.17028 -41.6755,-76.63588 -44.8143,-103.72717 -101.3209,97.39348 -119.033,268.59008 -35.5817,382.72114 12.7786,10.19625 27.4748,54.37382 45.9007,40.00494 z"
         style="display:inline;fill:#1ec999"
         id="path847" />
      <path
         d="m 1900.5344,934.31139 c -205.927,-14.83808 -392.84,-166.72637 -449.3273,-365.3491 -52.5758,-178.71502 6.2658,-383.36904 145.6744,-507.014353 134.0662,-125.918473 338.389,-168.744337 511.6529,-107.139333 198.8163,65.650097 348.2321,264.049546 345.0323,475.024036 6.0816,216.6045 -150.7096,419.79417 -355.9829,482.21989 -63.4199,21.19639 -130.6364,25.77419 -197.0494,22.25886 z m 68.4352,-35.84982 c -46.1391,-9.71606 -104.0044,-20.99661 -128.7045,-67.06233 -7.9629,-50.30682 76.8772,-45.84501 82.1147,-57.02714 -142.1158,-5.01678 -273.1956,-106.03527 -315.5902,-241.53449 -81.5039,-41.39627 -107.0206,-147.69572 -79.7873,-230.1155 8.5155,-20.32205 8.9682,-41.46281 16.4618,-37.67434 3.5631,-2.73407 14.6022,26.89325 9.1618,19.49046 30.7144,1.40553 -5.5325,46.37054 2.7244,69.61932 -1.9272,22.96817 8.726,103.36308 30.0782,83.72596 11.586,-46.56872 12.2038,-97.24456 35.3508,-141.13653 58.7553,-133.4975 207.0797,-218.336268 351.8721,-202.973594 164.4565,10.375204 308.7632,153.435294 318.372,318.435014 7.5788,21.29648 13.7942,98.95501 29.6424,37.86777 24.8268,-41.95093 6.2541,-126.34177 20.5446,-148.21938 62.1184,75.36715 65.048,182.67061 45.6051,274.25947 -5.2127,22.60698 -27.5817,85.53721 -2.6443,29.98939 72.6327,-169.69478 26.7811,-379.32536 -106.7626,-505.92639 C 2140.7301,-39.126472 1914.8219,-78.562058 1739.6879,8.1120471 1561.0867,90.33115 1443.6251,292.04493 1471.4931,488.43152 c 24.8056,223.51282 231.2853,409.01077 455.9858,410.69257 13.8282,0.003 27.6927,0.46705 41.4907,-0.66252 z M 1560.5344,282.85679 c 1.2775,-1.79373 1.2775,1.79373 0,0 z m 8,-5.5 c 1.073,-2.59045 1.073,2.59045 0,0 z m 1,-3.5 c 1.2775,-1.79373 1.2775,1.79373 0,0 z m -28,-6 c 1.2775,-1.79373 1.2775,1.79373 0,0 z m 2.0856,-10 c 2.0799,-8.67376 2.8218,-0.43441 0,0 z m 1.9144,-6 c 1.2775,-1.79373 1.2775,1.79373 0,0 z m 2,-3 c 1.2775,-1.79373 1.2775,1.79373 0,0 z m 1,-4 c 1.2775,-1.79373 1.2775,1.79373 0,0 z m 7,-14 c 1.2775,-1.79373 1.2775,1.79373 0,0 z m 11,-19.5 c 1.073,-2.59045 1.073,2.59045 0,0 z m 508.2331,598.06886 c 125.9871,-25.40054 232.6782,-126.26855 273.0924,-247.242 11.6342,-32.42912 22.6743,-109.6329 2.418,-120.0444 -15.5417,59.53528 -53.6592,109.68868 -97.403,151.41959 -49.787,89.83769 -139.7295,155.36177 -240.3602,175.60462 -67.5874,38.0888 36.2587,49.73915 62.2528,40.26219 z m -105.183,-70.10523 c 53.6255,-5.6141 110.8801,-20.33294 151.5007,-57.20254 27.4531,-46.32987 -9.7669,-94.16875 -34.2759,-132.2151 -65.0961,-110.38008 -36.1925,-264.86689 64.2251,-344.48537 -99.0183,-90.6203 -260.6342,-107.426519 -373.0281,-32.47589 -49.0483,37.00448 -20.1249,99.35027 10.7763,137.27905 79.7732,108.48214 65.5345,279.16126 -45.17,361.63622 62.4391,51.23435 145.915,74.0397 225.9719,67.46363 z m 220.5344,-116.46363 c 89.6816,-105.98406 87.9649,-273.92724 -1.9337,-379.31389 -21.7954,-39.81285 -51.151,30.89582 -67.3433,46.85342 -55.337,88.79951 -42.0797,208.74429 22.9348,288.95739 24.5538,19.1909 8.2985,102.09101 41.6836,49.19638 z m -464.5845,21.06553 c 97.9161,-73.18448 103.4868,-224.33988 34.4953,-318.99891 -25.9774,-26.17028 -41.6755,-76.63588 -44.8143,-103.72717 -101.3209,97.39348 -119.033,268.59008 -35.5817,382.72114 12.7786,10.19625 27.4748,54.37382 45.9007,40.00494 z m -165.3333,-355.2322 c -2.1461,0.31425 1.5175,2.9047 0,0 z m -8.2396,-8.09864 c -7.6841,-16.68397 -10.8773,2.83353 0,0 z m -10.4271,-7.23469 c -2.5549,-3.58745 -2.5549,3.58745 0,0 z m -2,-2.5 c -1.2775,-1.79373 -1.2775,1.79373 0,0 z"
         style="display:inline;fill:#606a74"
         id="path845" />
      <path
         d="M 1916.0344,934.22709 C 1718.8983,926.20115 1534.6049,792.44942 1465.5135,607.70346 1394.5672,427.71896 1443.7426,209.33263 1583.442,75.946741 1716.4014,-58.27981 1926.7665,-108.21866 2105.5344,-45.153202 c 194.6855,63.160656 342.506,253.003302 347.1402,459.003412 11.2122,200.56307 -116.8199,396.12776 -299.2,475.52635 -73.7805,34.13822 -156.3909,48.75714 -237.4402,44.85053 z m 64.972,-35.5121 c -11.6701,-5.75834 -79.3176,-9.75831 -53.9129,-17.97391 2.0779,-30.75588 -6.6053,-95.94416 -18.225,-99.13726 23.8722,-4.1339 51.0974,-8.29616 10.572,-7.95705 -140.1941,-6.24537 -269.5112,-105.60748 -311.1543,-239.72574 -75.2559,-37.73099 -105.9268,-134.08374 -85.8252,-213.02206 6.9022,-29.96284 19.1479,-69.21656 23.0734,-53.79203 8.6569,1.93041 5.1739,26.22636 10.773,18.02326 23.8021,7.68666 -11.7729,57.35076 -0.932,83.15348 -2.8157,25.58702 24.6094,118.43516 35.7233,50.34983 6.0961,-158.01843 135.2471,-300.01037 291.9696,-320.822507 115.2625,-19.845331 239.0426,20.633717 317.0618,108.532007 80.1795,83.90638 110.7878,210.30788 78.867,321.80985 8.41,-27.98156 31.8077,26.1378 38.6109,-15.02722 24.2958,-17.94795 23.7591,-107.3998 50.9264,-59.35925 26.04,16.11273 33.8491,0.21632 27.8634,38.7859 1.8581,47.53502 -13.204,97.56775 -25.3516,140.16161 83.9481,-156.23376 55.0834,-361.07629 -58.4691,-495.3357 C 2196.693,-8.0352822 1992.0113,-73.649892 1813.5344,-20.790783 1612.2515,33.86047 1457.9762,233.51083 1467.7087,443.72138 c 1.0142,223.68517 188.22,424.11171 408.1877,452.14126 34.6997,5.47474 70.153,4.44049 105.11,2.85235 z m 413.6069,-452.94153 c 1.4434,-2.66328 0.4459,4.31137 0,0 z M 1560.5344,282.85679 c 1.2775,-1.79373 1.2775,1.79373 0,0 z m 8,-5.5 c 1.073,-2.59045 1.073,2.59045 0,0 z m 1,-3.5 c 1.2775,-1.79373 1.2775,1.79373 0,0 z m -28,-6 c 1.2775,-1.79373 1.2775,1.79373 0,0 z m 2.0856,-10 c 2.0799,-8.67376 2.8218,-0.43441 0,0 z m 1.9144,-6 c 1.2775,-1.79373 1.2775,1.79373 0,0 z m 2,-3 c 1.2775,-1.79373 1.2775,1.79373 0,0 z m 1,-4 c 1.2775,-1.79373 1.2775,1.79373 0,0 z m 7,-14 c 1.2775,-1.79373 1.2775,1.79373 0,0 z m 11,-19.5 c 1.073,-2.59045 1.073,2.59045 0,0 z m 425.6667,686.33333 c -2.9048,-1.51748 -0.3143,2.14599 0,0 z m 82.5664,-88.26447 c 125.9871,-25.40054 232.6782,-126.26855 273.0924,-247.242 11.6342,-32.42912 22.6743,-109.6329 2.418,-120.0444 -15.5417,59.53528 -53.6592,109.68868 -97.403,151.41959 -49.787,89.83769 -139.7295,155.36177 -240.3602,175.60462 -67.5874,38.0888 36.2587,49.73915 62.2528,40.26219 z M 1965.5344,740.3423 c 55.259,-5.27728 114.7521,-20.03745 156.1806,-58.49875 29.1074,-49.55883 -14.0552,-97.1629 -37.8382,-138.12442 -60.762,-110.11391 -30.5832,-260.1877 67.8395,-338.52151 -99.1836,-90.67119 -260.7809,-107.780462 -373.4757,-32.90895 -52.4718,39.17807 -17.625,104.66558 14.252,144.17818 75.1369,108.26224 59.4173,275.24277 -49.9333,355.15359 61.7913,50.61154 143.6124,74.44853 222.9751,68.72186 z m 205.7091,-95.23551 c 100.594,-98.05636 114.4704,-267.86314 32.5827,-381.84906 -14.0719,-27.92199 -34.3329,-50.7407 -53.5418,-13.03286 -81.9656,84.31065 -85.9509,227.5159 -13.8847,319.32376 23.8263,16.05939 20.7637,79.81309 34.8438,75.55816 z m -450.793,3.75927 c 100.2019,-69.64799 111.5397,-220.6845 44.9289,-317.08766 -28.0833,-29.08558 -44.8768,-84.15458 -52.0416,-110.49736 -96.5088,95.91813 -117.4116,258.90296 -40.7432,373.03905 14.3955,17.29656 27.2406,48.17686 47.8559,54.54597 z m 556.0839,-113.00927 c -1.2775,-1.79373 -1.2775,1.79373 0,0 z m 1,-2 c -1.2775,-1.79373 -1.2775,1.79373 0,0 z m 0.6667,-4.16667 c -2.1461,0.31425 1.5175,2.9047 0,0 z m -718,-241 c -2.1461,0.31425 1.5175,2.9047 0,0 z m -8.2396,-8.09864 c -7.6841,-16.68397 -10.8773,2.83353 0,0 z m -10.4271,-7.23469 c -2.5549,-3.58745 -2.5549,3.58745 0,0 z m -2,-2.5 c -1.2775,-1.79373 -1.2775,1.79373 0,0 z"
         style="display:inline;fill:#169d86"
         id="path843" />
      <path
         d="M 1916.0344,934.22709 C 1718.8983,926.20115 1534.6049,792.44942 1465.5135,607.70346 1394.5672,427.71896 1443.7426,209.33263 1583.442,75.946741 1716.4014,-58.27981 1926.7665,-108.21866 2105.5344,-45.153202 c 194.6855,63.160656 342.506,253.003302 347.1402,459.003412 11.2122,200.56307 -116.8199,396.12776 -299.2,475.52635 -73.7805,34.13822 -156.3909,48.75714 -237.4402,44.85053 z m 64.972,-35.5121 c -11.6701,-5.75834 -79.3176,-9.75831 -53.9129,-17.97391 2.0779,-30.75588 -6.6053,-95.94416 -18.225,-99.13726 23.8722,-4.1339 51.0974,-8.29616 10.572,-7.95705 -140.3295,-6.25336 -269.8058,-105.81035 -311.2637,-240.15171 -8.929,-7.65726 -23.1059,-12.55155 -26.8091,-18.05259 -25.0095,-9.65277 -23.3753,-36.84404 -1.5731,-27.54521 33.7688,6.77501 -1.2302,-61.49129 13.3191,-83.0984 12.1769,-166.95238 163.5921,-308.932287 330.9402,-310.724248 168.5408,-14.458991 332.505,114.951278 361.7474,280.733808 15.5551,36.61722 -5.9101,159.93819 -3.1178,144.26965 22.1671,15.61769 32.6164,7.56166 46.6404,-26.31661 15.9833,-23.64918 16.0229,-81.16149 40.4605,-37.93121 29.0692,12.57378 30.4488,3.52432 26.311,42.24504 -4.3948,27.55422 6.0831,40.94531 -18.1247,41.38453 -36.9115,-14.53199 -0.7318,-95.29465 -27.791,-96.02682 -15.9949,57.82129 -52.3509,108.03065 -96.1235,147.71855 -51.4017,97.2477 -150.406,163.00216 -257.4928,182.87049 -22.3502,27.20788 28.4977,40.03678 19.0983,69.48105 10.7079,11.66045 6.6525,12.81327 14.7941,27.57232 -24.4005,41.87686 55.4518,4.58042 77.9292,-0.25482 156.5942,-57.91471 280.5169,-202.98151 305.9025,-368.81662 C 2441.2515,333.00243 2364.9312,156.17962 2227.9017,56.371968 2077.6207,-59.259631 1856.7836,-70.582545 1696.2282,30.706994 1549.4699,118.20113 1455.16,289.11954 1468.0856,460.63604 c 10.4141,221.6492 200.7098,414.60892 420.0888,436.90898 30.7253,3.38243 62.0145,2.6981 92.832,1.16997 z m 32.528,-77.8582 c 1.2775,-1.79373 1.2775,1.79373 0,0 z m 358.0789,-195.08333 c 1.4434,-2.66328 0.4459,4.31137 0,0 z m 1.9211,-6.91667 c 1.2775,-1.79373 1.2775,1.79373 0,0 z m 1.0306,-3 c 0.8147,-5.58596 3.5044,-1.35951 0,0 z m 2.9694,-8.5 c 1.073,-2.59045 1.073,2.59045 0,0 z m 1.0789,-3.58333 c 1.4434,-2.66328 0.4459,4.31137 0,0 z m 2.9211,-10.41667 c 1.073,-2.59045 1.073,2.59045 0,0 z m 1.0789,-3.58333 c 1.4434,-2.66328 0.4459,4.31137 0,0 z m 2,-7 c 1.4434,-2.66328 0.4459,4.31137 0,0 z m 1.079,-4.41667 c 0.8751,-4.50741 0.8751,4.50741 0,0 z m 0.8421,-3.5 c 1.2775,-1.79373 1.2775,1.79373 0,0 z m 2,-13 c 1.2775,-1.79373 1.2775,1.79373 0,0 z m 1.1949,-4 c 1.09,-4.74912 0.5868,6.02352 0,0 z m 3.0573,-17 c 0.9534,-6.52885 0.6171,7.77078 0,0 z m -822.7622,-33.51043 c -8.6925,-10.25616 10.6958,9.76549 0,0 z m -5.49,-5.48957 c 1.2775,-1.79373 1.2775,1.79373 0,0 z m -6.5955,-8.65451 c 0.9482,-2.0854 2.0379,4.12656 0,0 z m -2.4045,-2.34549 c 1.2775,-1.79373 1.2775,1.79373 0,0 z m -2.1276,-3.25 c -3.2484,-4.97038 5.6886,6.31351 0,0 z m 3.4609,1.08333 c 2.9048,-1.51748 0.3143,2.14599 0,0 z m 30.1667,-1.33333 c 3.138,-3.73591 -0.8589,3.61273 0,0 z m -7.5,-1.05902 c 2.8802,-1.90558 2.3337,3.43479 0,0 z m -28.5411,-2.00751 c -1.2218,-5.01548 3.255,3.80852 0,0 z m -2.4589,-3.43347 c 1.2775,-1.79373 1.2775,1.79373 0,0 z m -1,-2 c 1.2775,-1.79373 1.2775,1.79373 0,0 z m -1.5955,-2.65451 c 0.9482,-2.0854 2.0379,4.12656 0,0 z m -1.4045,-2.34549 c 1.2775,-1.79373 1.2775,1.79373 0,0 z m -1,-2 c 1.2775,-1.79373 1.2775,1.79373 0,0 z m -1,-2 c 1.2775,-1.79373 1.2775,1.79373 0,0 z m -1,-2 c 1.2775,-1.79373 1.2775,1.79373 0,0 z m -2.5955,-3.65451 c 0.9482,-2.0854 2.0379,4.12656 0,0 z m -2.9456,-5.91202 c -1.2218,-5.01548 3.255,3.80852 0,0 z m -3.4589,-7.43347 c 1.2775,-1.79373 1.2775,1.79373 0,0 z m 862.0789,-5.08333 c 1.4434,-2.66328 0.4459,4.31137 0,0 z m -864.0789,0.0833 c 1.2775,-1.79373 1.2775,1.79373 0,0 z m -1,-2 c 1.2775,-1.79373 1.2775,1.79373 0,0 z m -1.2688,-3.41984 c 0.2008,-4.54452 2.3469,4.19785 0,0 z m -2.7312,-8.08016 c 1.073,-2.59045 1.073,2.59045 0,0 z m -1,-3 c 1.073,-2.59045 1.073,2.59045 0,0 z m -1,-2.5 c 1.2775,-1.79373 1.2775,1.79373 0,0 z m -0.9211,-4.08333 c 1.4435,-2.6633 0.4458,4.31151 0,0 z m -1.2544,-5.74249 c 0.5583,-6.52869 1.4831,6.19619 0,0 z m -1.8245,-9.17418 c 1.2775,-1.79373 1.2775,1.79373 0,0 z m -0.8051,-6 c 1.09,-4.74912 0.5868,6.02352 0,0 z m -0.9089,-8 c 0.8805,-8.29337 0.6227,9.54529 0,0 z m -0.054,-47.5 c 0.8042,-6.25837 0.8042,6.25837 0,0 z m 3.768,-24 c 1.073,-2.59045 1.073,2.59045 0,0 z m 3,-13.5 c 1.2775,-1.79373 1.2775,1.79373 0,0 z m 467.6667,588.83333 c -2.9048,-1.51748 -0.3143,2.14599 0,0 z m 28.3333,-42.83333 c -1.2775,-1.79373 -1.2775,1.79373 0,0 z m -55,-114.51449 c 55.259,-5.27728 114.7521,-20.03745 156.1806,-58.49875 29.1074,-49.55883 -14.0552,-97.1629 -37.8382,-138.12442 -60.762,-110.11391 -30.5832,-260.1877 67.8395,-338.52151 -99.1836,-90.67119 -260.7809,-107.780462 -373.4757,-32.90895 -52.4718,39.17807 -17.625,104.66558 14.252,144.17818 75.1369,108.26224 59.4173,275.24277 -49.9333,355.15359 61.7913,50.61154 143.6124,74.44853 222.9751,68.72186 z m 205.7091,-95.23551 c 100.594,-98.05636 114.4704,-267.86314 32.5827,-381.84906 -14.0719,-27.92199 -34.3329,-50.7407 -53.5418,-13.03286 -81.9656,84.31065 -85.9509,227.5159 -13.8847,319.32376 23.8263,16.05939 20.7637,79.81309 34.8438,75.55816 z m -450.793,3.75927 c 100.2019,-69.64799 111.5397,-220.6845 44.9289,-317.08766 -28.0833,-29.08558 -44.8768,-84.15458 -52.0416,-110.49736 -96.5088,95.91813 -117.4116,258.90296 -40.7432,373.03905 14.3955,17.29656 27.2406,48.17686 47.8559,54.54597 z m 556.0839,-113.00927 c -1.2775,-1.79373 -1.2775,1.79373 0,0 z m 1,-2 c -1.2775,-1.79373 -1.2775,1.79373 0,0 z m 0.6667,-4.16667 c -2.1461,0.31425 1.5175,2.9047 0,0 z m -677.6667,-2.83333 c -1.2775,-1.79373 -1.2775,1.79373 0,0 z m -8,-4 c -1.2775,-1.79373 -1.2775,1.79373 0,0 z m -6,-4 c -1.2775,-1.79373 -1.2775,1.79373 0,0 z m 8.6623,-27.75 c -1.7503,0.99942 1.6231,5.50682 0,0 z m -32.6623,0.75 c -1.2775,-1.79373 -1.2775,1.79373 0,0 z"
         style="display:inline;fill:#30897c"
         id="path841" />
      <path
         d="M 1916.0344,934.22709 C 1718.8983,926.20115 1534.6049,792.44942 1465.5135,607.70346 1394.5672,427.71896 1443.7426,209.33263 1583.442,75.946741 1716.4014,-58.27981 1926.7665,-108.21866 2105.5344,-45.153202 c 194.6855,63.160656 342.506,253.003302 347.1402,459.003412 11.2122,200.56307 -116.8199,396.12776 -299.2,475.52635 -73.7805,34.13822 -156.3909,48.75714 -237.4402,44.85053 z m 57.4732,-34.94145 C 2145.4402,889.85475 2304.757,778.72466 2376.9264,623.03768 2461.4343,450.15132 2415.5912,228.41456 2276.0443,97.671588 2142.2054,-37.083752 1924.9143,-77.323745 1751.9529,1.3670967 1579.1484,75.927736 1457.1013,260.00754 1467.7751,449.62143 c 4.2669,221.42546 189.9718,418.00722 407.7593,446.2531 32.3962,4.68417 65.3294,5.30199 97.9732,3.41111 z m -59.8373,-125.93955 c -136.9076,-8.60521 -263.2761,-105.83082 -304.1359,-237.11187 -45.2894,-123.701 0.1147,-270.46304 98.7609,-355.8222 120.0105,-108.985181 317.5132,-117.142727 445.227,-16.83198 113.7554,83.89891 168.4191,241.37062 121.1174,376.2565 -48.6924,149.06363 -205.4216,248.51167 -360.9694,233.50955 z m 51.8641,-33.00379 c 55.259,-5.27728 114.7521,-20.03745 156.1806,-58.49875 29.1074,-49.55883 -14.0552,-97.1629 -37.8382,-138.12442 -60.762,-110.11391 -30.5832,-260.1877 67.8395,-338.52151 -99.1836,-90.67119 -260.7809,-107.780462 -373.4757,-32.90895 -52.4718,39.17807 -17.625,104.66558 14.252,144.17818 75.1369,108.26224 59.4173,275.24277 -49.9333,355.15359 61.7913,50.61154 143.6124,74.44853 222.9751,68.72186 z m 205.7091,-95.23551 c 100.594,-98.05636 114.4704,-267.86314 32.5827,-381.84906 -14.0719,-27.92199 -34.3329,-50.7407 -53.5418,-13.03286 -81.9656,84.31065 -85.9509,227.5159 -13.8847,319.32376 23.8263,16.05939 20.7637,79.81309 34.8438,75.55816 z m -450.793,3.75927 c 100.2019,-69.64799 111.5397,-220.6845 44.9289,-317.08766 -28.0833,-29.08558 -44.8768,-84.15458 -52.0416,-110.49736 -96.5088,95.91813 -117.4116,258.90296 -40.7432,373.03905 14.3955,17.29656 27.2406,48.17686 47.8559,54.54597 z"
         style="display:inline;fill:#111831"
         id="path839" />
    </g>
  </g>
</svg>
