<?xml version="1.0" encoding="UTF-8" standalone="no"?>
<svg
   xmlns:dc="http://purl.org/dc/elements/1.1/"
   xmlns:cc="http://creativecommons.org/ns#"
   xmlns:rdf="http://www.w3.org/1999/02/22-rdf-syntax-ns#"
   xmlns:svg="http://www.w3.org/2000/svg"
   xmlns="http://www.w3.org/2000/svg"
   xmlns:sodipodi="http://sodipodi.sourceforge.net/DTD/sodipodi-0.dtd"
   xmlns:inkscape="http://www.inkscape.org/namespaces/inkscape"
   inkscape:version="1.0 (4035a4fb49, 2020-05-01)"
   sodipodi:docname="favicon.svg"
   viewBox="0 0 4000 4000"
   height="4000"
   width="4000"
   id="svg2"
   version="1.1">
  <metadata
     id="metadata8">
    <rdf:RDF>
      <cc:Work
         rdf:about="">
        <dc:format>image/svg+xml</dc:format>
        <dc:type
           rdf:resource="http://purl.org/dc/dcmitype/StillImage" />
        <dc:title />
      </cc:Work>
    </rdf:RDF>
  </metadata>
  <defs
     id="defs6" />
  <sodipodi:namedview
     inkscape:current-layer="g839"
     inkscape:window-maximized="1"
     inkscape:window-y="-8"
     inkscape:window-x="-8"
     inkscape:cy="1192.8075"
     inkscape:cx="-2.8167046"
     inkscape:zoom="0.126"
     showgrid="false"
     id="namedview4"
     inkscape:window-height="1387"
     inkscape:window-width="2560"
     inkscape:pageshadow="2"
     inkscape:pageopacity="0"
     guidetolerance="10"
     gridtolerance="10"
     objecttolerance="10"
     borderopacity="1"
     bordercolor="#666666"
     pagecolor="#ffffff"
     inkscape:document-rotation="0" />
  <g
     id="g10"
     inkscape:label="Image"
     inkscape:groupmode="layer"
     style="display:inline">
    <g
       transform="translate(884.95981,1067.5386)"
       id="g839"
       style="display:inline">
      <circle
         r="1674.6031"
         cy="924.52478"
         cx="1122.9767"
         id="path867"
         style="display:inline;fill:#c8ff00;fill-opacity:1;stroke-width:3.94686;stroke-linecap:round;stroke-linejoin:round;stroke-opacity:0.995984;paint-order:markers stroke fill;stop-color:#000000" />
      <path
         sodipodi:nodetypes="cccccccccccccccccccccccccccc"
         d="M 1034.8863,2854.5625 C 351.35225,2833.3823 -298.64477,2412.192 -601.74364,1799.9808 -923.42757,1179.7101 -864.66024,384.82825 -453.0847,-180.27188 -78.757063,-716.8817 583.71687,-1034.6117 1236.7631,-986.67336 c 697.7283,36.29067 1350.8644,490.61616 1631.7135,1129.61374 287.9066,621.37063 203.6346,1393.86072 -211.086,1938.90352 -371.4915,504.1067 -996.4271,803.8295 -1622.5043,772.7186 z m 96.0514,-482.8699 C 1218.3708,1611.2917 1745.1835,1325.2428 2375.1434,1397.7494 2399.037,1087.124 2215.6771,769.16041 1935.6146,637.74067 1733.4052,1287.1224 1136.6223,1363.2955 754.2,1328.5194 c -89.53029,330.3819 -191.99178,710.2397 -279.96665,1040.8201 218.4872,0.1875 440.09209,4.7958 656.70435,2.3531 z m 1193.5477,-743.0085 c -420.4332,-129.893 -871.8047,223.2928 -884.6249,511.6153 345.1566,35.753 726.9004,-138.171 884.6249,-511.6153 z M 508.57095,1303.7324 C 588.46189,463.204 1236.1928,234.33879 1752.7768,329.78908 1776.6703,19.163671 1593.3103,-298.79978 1313.248,-430.21954 1202.5297,101.42877 590.59227,329.57288 138.60117,265.60406 48.173683,599.14009 -59.289417,967.63686 -148.13327,1301.3791 c 218.487145,0.1876 440.09222,4.7958 656.70422,2.3533 z M 1695.8342,565.4382 C 1386.5945,475.882 919.16214,666.11242 812.08953,1079.4617 1257.8109,1168.3636 1623.087,900.65841 1695.8342,565.4382 Z M 1079.7196,-504.96856 C 635.13615,-582.31758 273.5946,-275.23957 189.7229,11.501567 632.20624,102.58003 1001.2116,-225.70984 1079.7196,-504.96856 Z"
         style="display:inline;fill:#000000;fill-opacity:1;stroke-width:1.046"
         id="path841" />
    </g>
  </g>
</svg>
