<?xml version="1.0" encoding="UTF-8" standalone="no"?>
<svg
   xmlns:dc="http://purl.org/dc/elements/1.1/"
   xmlns:cc="http://creativecommons.org/ns#"
   xmlns:rdf="http://www.w3.org/1999/02/22-rdf-syntax-ns#"
   xmlns:svg="http://www.w3.org/2000/svg"
   xmlns="http://www.w3.org/2000/svg"
   xmlns:sodipodi="http://sodipodi.sourceforge.net/DTD/sodipodi-0.dtd"
   xmlns:inkscape="http://www.inkscape.org/namespaces/inkscape"
   version="1.1"
   id="svg2"
   width="4000"
   height="4000"
   viewBox="0 0 4000 4000"
   sodipodi:docname="favicon.svg"
   inkscape:version="1.0 (4035a4fb49, 2020-05-01)">
  <metadata
     id="metadata8">
    <rdf:RDF>
      <cc:Work
         rdf:about="">
        <dc:format>image/svg+xml</dc:format>
        <dc:type
           rdf:resource="http://purl.org/dc/dcmitype/StillImage" />
        <dc:title />
      </cc:Work>
    </rdf:RDF>
  </metadata>
  <defs
     id="defs6" />
  <sodipodi:namedview
     inkscape:document-rotation="0"
     pagecolor="#ffffff"
     bordercolor="#666666"
     borderopacity="1"
     objecttolerance="10"
     gridtolerance="10"
     guidetolerance="10"
     inkscape:pageopacity="0"
     inkscape:pageshadow="2"
     inkscape:window-width="2560"
     inkscape:window-height="1387"
     id="namedview4"
     showgrid="false"
     inkscape:zoom="0.17819091"
     inkscape:cx="2322.0969"
     inkscape:cy="1330.5555"
     inkscape:window-x="-8"
     inkscape:window-y="-8"
     inkscape:window-maximized="1"
     inkscape:current-layer="g839" />
  <g
     style="display:inline"
     inkscape:groupmode="layer"
     inkscape:label="Image"
     id="g10">
    <g
       style="display:inline"
       id="g839"
       transform="translate(884.95981,1067.5386)">
      <path
         sodipodi:nodetypes="ccccccccc"
         style="fill:#c6fc00"
         d="M -261.99324,865.1962 321.65045,-438.92094 1081.4076,-680.23516 2205.9421,-29.247956 2643.6749,792.24073 2071.2551,2169.3133 1434.961,2522.8667 332.87437,2304.0003 Z"
         id="path843" />
      <path
         id="path841"
         style="fill:#000000;fill-opacity:1"
         d="M 1035.0794,2766.4268 C 381.60155,2746.1779 -239.81387,2343.508 -529.58491,1758.2169 -837.12384,1165.2207 -780.94059,405.29131 -387.46279,-134.9603 -29.595026,-647.97438 603.74868,-951.73331 1228.0794,-905.9028 c 667.0477,34.69492 1291.4643,469.04285 1559.9638,1079.9425 275.247,594.04781 194.6805,1332.5699 -201.8041,1853.6462 -355.1564,481.9404 -952.6123,768.4837 -1551.1597,738.7409 z m 91.8277,-461.6371 c 83.5886,-726.9649 587.2365,-1000.4356 1189.4957,-931.1174 22.8429,-296.9666 -152.4542,-600.94862 -420.2019,-726.5896 -193.3178,620.8273 -763.859,693.6509 -1129.46557,660.404 -85.59347,315.8543 -183.54952,679.0089 -267.65598,995.0531 208.87991,0.1793 420.7404,4.585 627.82775,2.2499 z m 1141.0654,-710.3373 c -401.9461,-124.1812 -833.4699,213.4742 -845.7264,489.1188 329.9795,34.1808 694.9372,-132.0953 845.7264,-489.1188 z M 531.90705,1283.7897 C 608.28505,480.22072 1227.534,261.41914 1721.4028,352.6723 1744.2457,55.705687 1568.9485,-248.27631 1301.2009,-373.91731 1195.3513,134.35344 610.32176,352.46562 178.20554,291.30964 91.754323,610.17946 -10.983419,962.47273 -95.92065,1281.5398 c 208.87986,0.1793 420.74055,4.585 627.8277,2.2499 z M 1666.9641,577.9595 c -295.6418,-85.61823 -742.5203,96.2474 -844.88475,491.421 426.12225,84.9926 775.33635,-170.94105 844.88475,-491.421 z M 1077.9413,-445.37947 C 652.90696,-519.32731 307.26305,-225.75208 227.07935,48.3805 650.10587,135.45407 1002.8853,-178.40027 1077.9413,-445.37947 Z"
         sodipodi:nodetypes="cccccccccccccccccccccccccccc" />
    </g>
  </g>
</svg>
