<?xml version="1.0" encoding="UTF-8" standalone="no"?>
<svg
   xmlns:dc="http://purl.org/dc/elements/1.1/"
   xmlns:cc="http://creativecommons.org/ns#"
   xmlns:rdf="http://www.w3.org/1999/02/22-rdf-syntax-ns#"
   xmlns:svg="http://www.w3.org/2000/svg"
   xmlns="http://www.w3.org/2000/svg"
   xmlns:sodipodi="http://sodipodi.sourceforge.net/DTD/sodipodi-0.dtd"
   xmlns:inkscape="http://www.inkscape.org/namespaces/inkscape"
   inkscape:version="1.0 (4035a4fb49, 2020-05-01)"
   sodipodi:docname="favicon.svg"
   viewBox="0 0 826.83868 825.59998"
   height="825.59998"
   width="826.83868"
   id="svg2"
   version="1.1">
  <metadata
     id="metadata8">
    <rdf:RDF>
      <cc:Work
         rdf:about="">
        <dc:format>image/svg+xml</dc:format>
        <dc:type
           rdf:resource="http://purl.org/dc/dcmitype/StillImage" />
        <dc:title></dc:title>
      </cc:Work>
    </rdf:RDF>
  </metadata>
  <defs
     id="defs6" />
  <sodipodi:namedview
     inkscape:current-layer="g10"
     inkscape:window-maximized="1"
     inkscape:window-y="-8"
     inkscape:window-x="-8"
     inkscape:cy="717.14599"
     inkscape:cx="387.38802"
     inkscape:zoom="0.61046513"
     showgrid="false"
     id="namedview4"
     inkscape:window-height="1387"
     inkscape:window-width="2560"
     inkscape:pageshadow="2"
     inkscape:pageopacity="0"
     guidetolerance="10"
     gridtolerance="10"
     objecttolerance="10"
     borderopacity="1"
     bordercolor="#666666"
     pagecolor="#ffffff" />
  <g
     id="g10"
     inkscape:label="Image"
     inkscape:groupmode="layer">
    <g
       transform="translate(-16.380952,-908.32378)"
       id="g841">
      <path
         id="path849"
         d="m 405.54747,1730.1321 c -62.45838,-3.5707 -125.66943,-22.4083 -179.66114,-53.5411 -111.2096,-64.1257 -185.960561,-175.7175 -202.433705,-302.2027 -2.463352,-18.9143 -2.846177,-26.0786 -2.846177,-53.2645 0,-27.9105 0.384044,-34.6893 3.122875,-55.1226 14.121164,-105.3521 69.146406,-201.3169 153.269037,-267.30325 72.25728,-56.67913 160.8138,-87.2594 252.69194,-87.2594 91.87815,0 180.43467,30.58027 252.69194,87.2594 84.12263,65.98635 139.14791,161.95115 153.26907,267.30325 2.73879,20.4333 3.12285,27.2121 3.12285,55.1226 0,27.9104 -0.38406,34.6893 -3.12285,55.1226 -14.12116,105.3521 -69.14644,201.3168 -153.26907,267.3032 -78.69892,61.732 -176.49597,92.3189 -276.83477,86.5825 z"
         style="fill:#f8f8d5;stroke-width:0.619355" />
      <path
         id="path847"
         d="m 420.70966,1682.7586 c -82.50379,-3.4134 -155.42548,-30.5088 -218.0129,-81.0067 -67.57121,-54.519 -113.839777,-133.4621 -128.17578,-218.6926 -3.445502,-20.4843 -4.844437,-37.7435 -4.844437,-59.7678 0,-34.0019 3.991382,-63.6491 12.895283,-95.7836 9.570804,-34.5414 25.550694,-69.7646 45.336904,-99.9325 54.73789,-83.4584 141.82842,-140.88293 239.94025,-158.20832 35.75201,-6.31338 73.69544,-7.27458 109.53165,-2.7747 74.11989,9.30708 142.19421,40.43012 197.88386,90.47082 60.31698,54.1987 100.80625,127.7117 113.91,206.8166 7.75315,46.804 6.42141,92.6252 -4.03652,138.8862 -18.93541,83.7616 -67.25301,157.3281 -137.43477,209.2528 -54.793,40.5392 -120.92041,64.9778 -188.90322,69.8128 -10.27647,0.7309 -30.77371,1.2297 -38.09032,0.927 z M 191.25772,1539.6431 c 5.79019,-4.3526 17.23402,-15.5932 23.77389,-23.3517 22.91781,-27.1884 38.87846,-59.2313 48.31587,-96.9999 4.78613,-19.1541 6.62137,-33.1445 7.51527,-57.2903 0.40106,-10.8333 -0.90231,-36.6061 -2.26827,-44.8529 -2.02144,-12.2041 -3.43705,-18.9507 -6.44331,-30.7084 -7.9279,-31.0063 -15.81605,-48.8038 -38.70567,-87.329 -21.18129,-35.65 -22.49988,-38.1892 -27.6596,-53.2645 -3.48545,-10.1836 -6.58337,-23.3081 -7.30962,-30.9678 -1.04372,-11.0078 -1.49919,-11.4385 -6.48644,-6.1325 -6.45083,6.8631 -28.56429,37.1477 -32.195,44.0914 -1.09493,2.094 -0.48377,3.2476 5.09534,9.6175 9.74694,11.1283 25.74767,33.8602 36.81174,52.2976 1.78767,2.979 4.6686,7.7854 6.40207,10.6809 4.90385,8.1911 12.54515,23.1928 16.013,31.4373 3.05499,7.263 7.58956,20.7507 9.5247,28.3304 0.52181,2.0439 1.27154,4.9403 1.66606,6.4364 1.92075,7.2843 4.01595,20.8963 5.53956,35.9894 0.84271,8.3479 0.8441,37.906 0.002,45.7136 -1.35764,12.5898 -2.82168,23.5544 -3.6546,27.3703 -0.33459,1.5329 -1.04306,4.8774 -1.57438,7.4322 -1.09017,5.2422 -2.15427,9.3171 -4.77117,18.271 -8.14591,27.8718 -21.0859,52.5409 -38.01069,72.4645 -3.47247,4.0878 -7.0809,8.129 -8.01873,8.9807 -3.32674,3.0211 -7.73574,8.7544 -7.73574,10.0596 0,2.3359 17.93909,24.6242 19.81917,24.6242 0.27324,0 2.23286,-1.305 4.35469,-2.9 z m 505.37172,-23.376 c 6.40921,-8.64 15.48666,-22.7681 15.48666,-24.1034 0,-1.4331 -6.32051,-10.4054 -23.00482,-32.6563 -17.04669,-22.7344 -18.72204,-25.3198 -26.46187,-40.8352 -22.03832,-44.1786 -33.50259,-80.265 -36.99148,-116.4387 -0.654,-6.7809 -0.72159,-28.5251 -0.10877,-34.9936 2.11133,-22.2857 6.13825,-39.0854 14.54911,-60.6968 3.74511,-9.623 12.4507,-26.282 17.95323,-34.3554 11.35526,-16.6605 18.42339,-24.5153 31.83013,-35.3724 3.37221,-2.7309 6.12871,-5.3 6.12561,-5.709 -0.007,-0.9947 -12.61966,-17.7535 -16.83171,-22.3659 -3.02914,-3.3171 -3.51137,-3.6186 -5.13569,-3.211 -2.40527,0.6037 -27.13158,25.3763 -33.13239,33.1944 -9.79096,12.7561 -17.92386,26.1145 -25.51354,41.9063 -22.202,46.1957 -29.2588,91.96 -22.47571,145.7582 4.06608,32.249 12.41234,59.0509 27.48409,88.2581 6.09568,11.8126 11.87887,21.6987 24.09383,41.1871 4.59047,7.3238 10.26135,16.4734 12.60195,20.3323 2.3406,3.859 7.96267,11.6628 12.49356,17.342 4.53089,5.6791 10.82385,13.9489 13.98429,18.3773 6.3028,8.8313 7.4164,10.2193 8.19871,10.2193 0.28856,0 2.47321,-2.6268 4.85481,-5.8373 z"
         style="fill:#d0ee13;stroke-width:0.619355" />
      <path
         id="path845"
         d="m 420.70966,1682.7586 c -82.50379,-3.4134 -155.42548,-30.5088 -218.0129,-81.0067 -67.57121,-54.519 -113.839777,-133.4621 -128.17578,-218.6926 -3.445502,-20.4843 -4.844437,-37.7435 -4.844437,-59.7678 0,-34.0019 3.991382,-63.6491 12.895283,-95.7836 9.570804,-34.5414 25.550694,-69.7646 45.336904,-99.9325 54.73789,-83.4584 141.82842,-140.88293 239.94025,-158.20832 35.75201,-6.31338 73.69544,-7.27458 109.53165,-2.7747 74.11989,9.30708 142.19421,40.43012 197.88386,90.47082 60.31698,54.1987 100.80625,127.7117 113.91,206.8166 7.75315,46.804 6.42141,92.6252 -4.03652,138.8862 -18.93541,83.7616 -67.25301,157.3281 -137.43477,209.2528 -54.793,40.5392 -120.92041,64.9778 -188.90322,69.8128 -10.27647,0.7309 -30.77371,1.2297 -38.09032,0.927 z m -22.60645,-83.8837 c 65.09043,-4.1201 120.65841,-21.9053 169.08386,-54.1175 11.29032,-7.5102 23.62794,-16.9741 33.13549,-25.4174 9.92638,-8.8152 25.70322,-24.4873 25.70322,-25.5325 0,-1.3512 -6.5658,-12.9733 -16.72945,-29.6128 -12.46314,-20.4041 -16.07693,-26.7628 -22.35156,-39.329 -14.27179,-28.5821 -22.94962,-56.0705 -28.05779,-88.8774 -3.10991,-19.9732 -3.10903,-66.0347 0.002,-87.329 4.82993,-33.0633 17.01172,-69.618 32.40465,-97.2387 12.03856,-21.6018 25.67647,-39.3558 46.74883,-60.8584 l 10.4767,-10.6905 -3.91841,-3.5546 c -43.52875,-39.4872 -103.64564,-67.8176 -163.81352,-77.19777 -17.49045,-2.72676 -23.565,-3.11159 -49.23871,-3.11926 -25.69109,-0.008 -30.20551,0.27539 -49.54839,3.10668 -32.23798,4.71885 -63.78856,14.47195 -95.31948,29.46595 -47.56852,22.6203 -68.96904,52.3612 -63.56536,88.3383 2.51636,16.7537 8.04371,29.0354 28.48713,63.2983 12.48063,20.9174 18.56965,31.8967 23.67189,42.6836 14.41246,30.4702 22.70674,58.7608 27.89157,95.1341 1.53634,10.778 1.50536,59.5345 -0.0464,73.0839 -3.80709,33.2413 -14.50022,68.9314 -29.50487,98.4774 -11.75534,23.1477 -22.15372,38.0832 -39.16135,56.2488 -5.81399,6.2098 -6.72208,7.4461 -5.98862,8.1533 1.48361,1.4302 16.51531,9.6089 26.87747,14.6239 48.92018,23.6757 94.42088,33.3204 142.76128,30.2606 z m -206.84549,-59.2318 c 5.79019,-4.3526 17.23402,-15.5932 23.77389,-23.3517 22.91781,-27.1884 38.87846,-59.2313 48.31587,-96.9999 4.78613,-19.1541 6.62137,-33.1445 7.51527,-57.2903 0.40106,-10.8333 -0.90231,-36.6061 -2.26827,-44.8529 -2.02144,-12.2041 -3.43705,-18.9507 -6.44331,-30.7084 -7.9279,-31.0063 -15.81605,-48.8038 -38.70567,-87.329 -21.18129,-35.65 -22.49988,-38.1892 -27.6596,-53.2645 -3.48545,-10.1836 -6.58337,-23.3081 -7.30962,-30.9678 -1.04372,-11.0078 -1.49919,-11.4385 -6.48644,-6.1325 -4.5822,4.8751 -18.88769,23.8469 -25.87337,34.3132 -6.77743,10.1542 -7.16454,10.8737 -6.67679,12.4105 0.21214,0.6684 0.13456,1.2153 -0.17243,1.2153 -1.26346,0 -13.70867,23.7363 -19.48408,37.1613 -13.09152,30.4313 -20.66265,59.4352 -25.05969,96 -1.54829,12.8752 -1.55204,53.9616 -0.006,66.8903 6.60195,55.2119 22.48774,100.2614 50.45105,143.0709 3.2264,4.9394 7.22727,10.8577 8.8908,13.1519 1.66355,2.2941 3.02462,4.6465 3.02462,5.2275 0,2.1293 18.08653,24.3561 19.81917,24.3561 0.27324,0 2.23286,-1.305 4.35469,-2.9 z m 505.37172,-23.376 c 6.40921,-8.64 15.48666,-22.7681 15.48666,-24.1034 0,-1.4331 -6.32051,-10.4054 -23.00482,-32.6563 -7.04151,-9.391 -14.35621,-19.4085 -16.2549,-22.2611 -2.99087,-4.4937 -3.33845,-5.3155 -2.60179,-6.1514 1.36896,-1.5532 10.3615,-22.3188 14.84532,-34.2808 19.32213,-51.5482 26.66972,-107.1127 20.1647,-152.4903 -3.32098,-23.166 -9.93947,-49.7145 -17.13897,-68.7484 -3.11597,-8.2381 -10.98048,-25.1151 -11.99566,-25.7425 -0.70607,-0.4364 6.58225,-7.2752 14.77322,-13.8622 2.81032,-2.26 5.10714,-4.4464 5.10404,-4.8587 -0.007,-0.999 -12.60678,-17.7452 -16.83171,-22.3716 -3.02914,-3.3171 -3.51137,-3.6186 -5.13569,-3.211 -2.40527,0.6037 -27.13158,25.3763 -33.13239,33.1944 -9.79096,12.7561 -17.92386,26.1145 -25.51354,41.9063 -22.202,46.1957 -29.2588,91.96 -22.47571,145.7582 4.06608,32.249 12.41234,59.0509 27.48409,88.2581 6.09568,11.8126 11.87887,21.6987 24.09383,41.1871 4.59047,7.3238 10.26135,16.4734 12.60195,20.3323 2.3406,3.859 7.96267,11.6628 12.49356,17.342 4.53089,5.6791 10.82385,13.9489 13.98429,18.3773 6.3028,8.8313 7.4164,10.2193 8.19871,10.2193 0.28856,0 2.47321,-2.6268 4.85481,-5.8373 z"
         style="fill:#aacd2d;stroke-width:0.619355" />
      <path
         id="path843"
         d="M 413.89676,1681.8318 C 302.39938,1676.5502 199.03664,1619.6482 134.84155,1528.2096 116.17591,1501.6225 99.215978,1468.2813 88.987196,1438.0652 68.276653,1376.8857 64.562671,1310.907 78.247393,1247.2731 93.607323,1175.8494 132.80639,1108.1265 187.3367,1058.803 c 41.89003,-37.8901 89.93262,-64.77728 143.25683,-80.17411 91.58785,-26.44507 191.6238,-15.73397 274.20375,29.35971 58.27763,31.8231 104.60543,76.252 138.90598,133.2126 6.39409,10.6182 19.21146,36.5288 24.05091,48.6194 21.64924,54.0872 29.98482,113.4706 23.90796,170.3225 -11.02631,103.1566 -64.33752,194.3518 -148.96344,254.8199 -57.11361,40.8096 -123.78523,63.648 -195.35677,66.9197 -14.99308,0.6853 -17.9988,0.6808 -33.44516,-0.051 z m 44.59354,-30.9292 c 58.52886,-4.879 115.836,-26.0546 160.08314,-59.1528 11.24106,-8.4087 14.95672,-13.7872 18.41003,-26.6491 1.54678,-5.7609 1.65262,-7.0149 1.69443,-20.0802 0.0353,-11.0496 -0.19225,-15.2181 -1.09942,-20.129 -3.20121,-17.3305 -8.57786,-30.2654 -21.36825,-51.4064 -2.88527,-4.7691 -8.69505,-14.3845 -12.91062,-21.3678 -22.21418,-36.7984 -34.66237,-68.8172 -41.65693,-107.1484 -2.9586,-16.2135 -3.76685,-27.2741 -3.77916,-51.7161 -0.0118,-23.3358 0.9456,-38.5952 3.18631,-50.7871 9.59939,-52.231 28.02809,-93.3527 58.11189,-129.6703 3.56566,-4.3046 11.89059,-13.3216 18.49982,-20.0379 6.60926,-6.7163 11.90003,-12.5692 11.75727,-13.0064 -0.14276,-0.4373 -3.16521,-3.3968 -6.71659,-6.5768 -34.24581,-30.6639 -83.69061,-56.6919 -130.64951,-68.7745 -15.38019,-3.9573 -28.15672,-6.27976 -47.05918,-8.55419 -13.09402,-1.57554 -53.18903,-1.56927 -67.2,0.0105 -41.14189,4.63889 -75.77178,14.51339 -112.10322,31.96569 -36.77484,17.6653 -57.60716,39.0533 -63.24365,64.9308 -1.57617,7.2363 -1.40889,20.9132 0.35776,29.2486 2.86419,13.514 10.1393,29.3484 24.18776,52.6452 13.26122,21.9912 18.23554,30.7876 24.51702,43.3548 15.26001,30.5304 24.04502,58.542 29.62198,94.4516 2.91406,18.7635 2.92753,63.9501 0.0253,84.8516 -7.28576,52.471 -29.85441,104.9748 -59.9015,139.3549 -3.87026,4.4284 -11.82979,12.9652 -17.68784,18.9708 -5.85805,6.0055 -10.65087,11.301 -10.6507,11.7678 3.3e-4,0.9301 2.67974,3.3347 12.07712,10.8383 21.57816,17.2296 38.02501,27.9351 59.83868,38.95 39.67669,20.0351 83.49614,31.7214 128.75486,34.3383 10.83222,0.6263 33.73448,0.3091 44.90322,-0.6219 z m -263.84515,-113.338 c 22.50167,-18.8702 43.44563,-48.3847 56.72506,-79.9376 15.77104,-37.4731 22.14477,-77.2546 19.38955,-121.0193 -1.26876,-20.1534 -2.8571,-30.1139 -8.04935,-50.4775 -7.71272,-30.2486 -15.99505,-48.9058 -38.62968,-87.0193 -3.6414,-6.1316 -8.68827,-14.6317 -11.21526,-18.889 -7.91127,-13.3285 -13.11898,-24.3599 -16.85624,-35.7063 -3.32875,-10.1062 -6.55915,-24.6126 -7.6897,-34.5314 -0.64668,-5.6736 -1.73693,-6.4468 -4.86726,-3.4518 -7.13564,6.8271 -31.8182,40.518 -34.65063,47.297 -0.45665,1.0929 -2.27985,4.4819 -4.05155,7.5311 -5.63842,9.7039 -15.28308,29.8157 -19.70391,41.088 -11.26952,28.7351 -17.84993,55.5984 -21.56069,88.0172 -1.54661,13.5118 -1.55376,52.6124 -0.012,65.6516 7.14503,60.4285 25.75877,109.9083 58.74212,156.1505 2.33691,3.2763 4.24892,6.2439 4.24892,6.5947 0,1.5155 16.98622,22.216 19.16763,23.3589 1.98316,1.0391 2.60251,0.7191 9.01301,-4.6568 z m 482.61187,2.6559 c 1.18773,-1.2774 4.54748,-5.249 7.46601,-8.8258 2.91858,-3.5767 6.47021,-7.7574 7.8925,-9.2903 4.7481,-5.1174 16.74921,-22.8323 20.72138,-30.587 1.24144,-2.4236 4.29709,-8.1259 6.79042,-12.6717 13.84766,-25.2476 25.57149,-57.6698 32.24752,-89.1805 8.66836,-40.9147 9.80766,-72.5397 3.97532,-110.3479 -8.25866,-53.5367 -26.29861,-100.1528 -54.22649,-140.124 -2.31862,-3.3185 -4.68375,-6.9417 -5.25578,-8.0516 -1.42427,-2.7635 -12.95493,-17.866 -17.26359,-22.6115 -2.26399,-2.4934 -3.99595,-3.8709 -4.86714,-3.8709 -2.56394,0 -24.73784,21.7376 -33.80346,33.1384 -14.65505,18.4299 -29.09353,45.6236 -37.79274,71.1794 -12.94031,38.015 -16.26575,73.9565 -10.83465,117.1015 4.03662,32.0673 12.06868,58.3157 26.62799,87.0194 6.27547,12.372 11.42409,21.1818 25.81531,44.1723 14.05929,22.4602 16.52135,26.8183 19.02286,33.6727 2.25631,6.1824 5.7937,19.608 7.41046,28.1251 0.96533,5.0858 2.53316,19.287 2.53316,22.9456 0,1.1649 1.49389,0.4084 3.54092,-1.7932 z"
         style="fill:#182535;stroke-width:0.619355" />
    </g>
  </g>
</svg>
