<?xml version="1.0" encoding="UTF-8" standalone="no"?>
<svg
   xmlns:dc="http://purl.org/dc/elements/1.1/"
   xmlns:cc="http://creativecommons.org/ns#"
   xmlns:rdf="http://www.w3.org/1999/02/22-rdf-syntax-ns#"
   xmlns:svg="http://www.w3.org/2000/svg"
   xmlns="http://www.w3.org/2000/svg"
   xmlns:sodipodi="http://sodipodi.sourceforge.net/DTD/sodipodi-0.dtd"
   xmlns:inkscape="http://www.inkscape.org/namespaces/inkscape"
   inkscape:version="1.0 (4035a4fb49, 2020-05-01)"
   sodipodi:docname="logo.svg"
   viewBox="0 0 1024 1024"
   height="1024"
   width="1024"
   id="svg2"
   version="1.1">
  <metadata
     id="metadata8">
    <rdf:RDF>
      <cc:Work
         rdf:about="">
        <dc:format>image/svg+xml</dc:format>
        <dc:type
           rdf:resource="http://purl.org/dc/dcmitype/StillImage" />
        <dc:title />
      </cc:Work>
    </rdf:RDF>
  </metadata>
  <defs
     id="defs6" />
  <sodipodi:namedview
     inkscape:current-layer="g10"
     inkscape:window-maximized="1"
     inkscape:window-y="-8"
     inkscape:window-x="-8"
     inkscape:cy="606.55284"
     inkscape:cx="853.08834"
     inkscape:zoom="1.96875"
     showgrid="false"
     id="namedview4"
     inkscape:window-height="1387"
     inkscape:window-width="2560"
     inkscape:pageshadow="2"
     inkscape:pageopacity="0"
     guidetolerance="10"
     gridtolerance="10"
     objecttolerance="10"
     borderopacity="1"
     bordercolor="#666666"
     pagecolor="#ffffff"
     inkscape:document-rotation="0" />
  <g
     style="display:inline"
     id="g10"
     inkscape:label="Image"
     inkscape:groupmode="layer">
    <path
       sodipodi:nodetypes="ccsscccsccc"
       style="display:inline;fill:#23b892;stroke-width:1.11858"
       d="M 322.44774,925.55254 C 100.55477,774.15387 -35.589258,434.65755 147.62836,203.09706 182.81393,158.73621 233.19299,116.35828 284.08933,88.308609 316.30438,70.554392 352.44625,55.729927 381.27104,48.44715 426.26379,37.928829 477.66344,29.46523 518.4492,38.145131 c 34.16432,5.74306 49.73002,34.600666 26.62168,51.445278 137.85108,25.299371 365.96755,339.279951 370.73366,293.511481 5.23583,-30.46293 44.50572,-12.24643 58.52727,2.06897 23.97751,24.47999 57.43869,124.1151 6.96899,287.99318 -163.5935,485.45566 -795.38585,291.02383 -655.54098,250.62194 38.77721,-8.53777 68.42394,49.43396 -3.31208,1.76656 z"
       id="path841" />
    <path
       id="path843-0"
       d="M 393.94053,951.69142 C 305.5903,937.91169 211.66663,903.78335 150.32734,849.57621 23.801485,737.762 -20.29395,566.96799 15.255908,498.46913 70.533553,408.31695 489.15183,937.82966 393.94053,951.69142 Z"
       style="display:inline;fill:#f44470;stroke-width:1.33509"
       sodipodi:nodetypes="cscc" />
    <path
       sodipodi:nodetypes="ccc"
       style="display:inline;fill:#f44470;stroke-width:1.34042"
       d="M 607.53419,62.380364 C 866.20242,61.985411 1019.1671,270.09286 918.8072,401.02009 807.18505,465.1652 175.30391,57.885083 607.53419,62.380364 Z"
       id="path843" />
    <ellipse
       ry="416.01358"
       rx="412.65863"
       cy="521.45087"
       cx="513.18066"
       id="path865"
       style="display:inline;fill:#ecec15;fill-opacity:1;stroke-width:1.13613;stroke-linecap:round;stroke-linejoin:round;paint-order:markers stroke fill" />
    <path
       sodipodi:nodetypes="sssssssssssssssccccccsssssssssscsssssssssssss"
       style="display:inline;fill:#ffffff;fill-opacity:1;stroke-width:1.10085"
       d="m 233.7127,797.50006 c 19.44054,-14.46363 38.50768,-34.42792 53.7527,-56.28195 7.3195,-10.49261 15.37678,-25.39873 25.07663,-46.39196 6.14711,-13.30415 14.07923,-38.59942 17.38351,-55.43596 5.77272,-29.41373 6.24244,-34.35435 6.27866,-66.05054 0.0352,-31.1101 -0.35909,-36.00632 -4.92494,-61.09676 -2.33797,-12.84779 -6.89216,-31.76486 -8.61321,-35.77737 -0.51938,-1.21092 -2.29086,-6.4124 -3.93661,-11.55885 -8.67971,-27.14224 -24.49254,-57.7352 -47.7092,-92.30241 -7.05431,-10.50303 -15.139,-22.73782 -17.96607,-27.18843 -11.50205,-18.10721 -21.1638,-39.15889 -24.65358,-53.71706 -0.89378,-3.7289 -2.17957,-8.76133 -2.85725,-11.1832 -0.67757,-2.42185 -1.53435,-11.05116 -1.90402,-19.17626 -0.41435,-9.10894 -1.13166,-14.92489 -1.8711,-15.16934 -3.00177,-0.99244 -36.78585,39.65328 -48.12717,57.90209 l -5.06189,8.1447 2.42515,3.16785 c 12.79399,15.416 24.9485,32.87323 33.39185,45.49246 85.84743,107.36195 131.27479,283.1634 -6.02138,404.88213 l -5.87817,5.14524 c 9.31026,11.91546 15.72399,18.88096 22.66326,26.77064 3.57686,4.06554 6.92606,7.39189 7.4428,7.39189 0.51662,0 5.5162,-3.4051 11.11003,-7.56691 z m 592.9508,-25.95548 c 7.46095,-9.01985 23.23361,-31.16134 23.23361,-32.61513 0,-0.5044 -5.08611,-6.26419 -11.30258,-12.79953 -26.20863,-27.55331 -49.7649,-61.37824 -65.67064,-94.29811 -11.65329,-24.11848 -21.87923,-57.58553 -26.11352,-85.4628 -2.41932,-15.92809 -2.7968,-65.47029 -0.62065,-81.46234 5.60438,-41.1853 22.26322,-85.23069 44.96699,-118.89097 10.90142,-16.16241 17.07483,-23.54299 34.17498,-40.85814 l 12.62788,-12.78667 -4.76445,-5.92807 c -2.62044,-3.26044 -6.22438,-7.90939 -8.00863,-10.33103 -5.94477,-8.06812 -16.32152,-19.26433 -17.85445,-19.26433 -1.93186,0 -36.59607,34.63523 -43.86229,43.82576 -29.03857,36.72835 -51.77823,85.43845 -62.19726,133.23133 -8.2627,37.90151 -8.22109,98.43369 0.0947,137.23342 8.82326,41.16905 27.25928,83.31326 52.97232,121.09266 4.53283,6.66009 12.87689,19.53995 18.54215,28.6219 13.00348,20.84569 14.47465,22.76514 33.53243,43.74882 5.44917,5.99984 10.65065,11.84374 11.55884,12.98645 0.9082,1.1427 1.70851,2.09612 1.77842,2.11872 0.0705,0.0226 3.18044,-3.65028 6.9124,-8.16194 z"
       id="path845" />
    <path
       style="display:inline;fill:#232b3c;stroke-width:1.10085"
       d="m 482.76618,966.2456 c -2.42186,-0.24308 -10.10023,-0.97846 -17.06307,-1.63417 C 406.57104,959.04274 343.89502,938.96051 290.94241,908.61578 224.94923,870.79804 168.90005,815.68885 129.64666,750.02485 107.7073,713.32411 87.560018,663.717 79.436903,626.39698 77.058422,615.46923 72.276033,586.48039 70.502356,572.23881 65.33192,530.7238 66.491987,487.34062 73.902528,445.09152 90.665054,349.5238 139.7154,260.52013 211.12561,196.0954 c 33.43842,-30.16754 63.05086,-50.02222 108.16547,-72.52328 79.33518,-36.591051 176.38357,-50.949361 254.29459,-39.928409 55.38866,8.987904 91.79616,20.449549 135.95403,42.800419 53.08713,26.87048 96.32635,60.69027 137.16672,107.28565 38.30734,43.70554 70.95436,103.57522 87.94255,161.2734 2.49573,8.4765 5.25631,17.74266 6.13456,20.59147 2.11318,6.85484 8.75555,46.42187 10.58823,63.07256 1.87331,17.0189 1.88475,71.83234 0.0187,88.06738 -6.42331,55.87447 -19.43163,101.90219 -42.11217,149.00574 -14.40177,29.91003 -32.45582,58.6087 -53.42422,84.92327 -15.13097,18.98877 -50.7813,54.66709 -69.2552,69.30956 -67.68618,53.64828 -149.096,86.59441 -233.929,94.6699 -4.57878,0.43586 -13.51305,0.85633 -23.53898,1.18658 -18.76028,0.61795 -41.34279,0.41596 -46.36451,0.41596 z m 60.54632,-43.25963 c 9.68741,-0.68032 20.33807,-1.71141 23.66812,-2.29129 3.33004,-0.57988 9.52228,-1.61773 13.76052,-2.30635 11.0245,-1.79122 47.04924,-10.72113 56.14296,-13.91684 23.32818,-8.19804 46.54758,-18.29366 65.75685,-28.59062 23.22149,-12.44768 33.55488,-21.24422 40.19935,-34.22055 6.53702,-12.7663 8.53978,-22.18031 8.48782,-39.89588 -0.0891,-30.50399 -8.70931,-53.0732 -35.85048,-93.86758 -31.53164,-47.39347 -47.29934,-84.68468 -58.75602,-138.96058 -4.53184,-21.46953 -7.1699,-67.84371 -5.07258,-89.16823 0.71467,-7.26556 1.78337,-18.41159 2.37497,-24.76896 1.75539,-19.856 7.49562,-41.29526 12.52098,-58.89506 4.55473,-15.96378 6.59052,-21.72132 13.18566,-37.29307 21.57948,-50.95099 48.77348,-88.83333 91.18949,-127.03033 2.87133,-2.58569 5.22052,-5.42323 5.22052,-6.30563 0,-3.07301 -29.94907,-26.27161 -53.19005,-41.20109 -32.95824,-21.17161 -64.81771,-35.55095 -103.65984,-46.78555 -23.88035,-6.90707 -34.44557,-9.12408 -57.81437,-12.13185 -32.85882,-4.22921 -53.3084,-4.62284 -88.61781,-1.70577 -44.77423,3.69899 -92.50764,16.81452 -134.85318,37.05312 -18.97677,9.06974 -29.12059,15.41306 -39.15972,24.48821 -31.10507,31.25086 -39.23139,61.39391 -29.20612,96.42435 2.06738,7.17698 6.20281,17.44232 10.15285,25.20246 6.58204,12.93084 9.85397,18.29678 28.26346,46.35229 5.16482,7.87103 10.46241,16.04478 11.77241,18.1639 1.3099,2.11912 4.12365,6.57753 6.25279,9.90759 26.37541,41.76393 42.42217,92.80224 49.06949,135.95403 2.83027,18.58328 3.01555,22.0394 2.98153,55.59253 1.21555,41.35386 -6.55529,84.34166 -20.27994,121.43787 -12.07867,32.21449 -27.2912,59.97004 -46.87288,85.52051 -11.35409,14.81489 -34.56887,38.10497 -48.3622,48.51899 -3.34073,2.52228 -6.07401,5.24272 -6.07401,6.04541 0,1.57191 12.43952,11.08976 27.52106,21.05723 48.67342,32.16848 95.6228,51.40582 150.81541,61.79613 19.00769,3.5783 26.13927,4.50018 43.94914,5.68119 22.44922,2.99786 45.73515,1.43188 64.48382,0.13942 z M 229.30856,802.14983 c 15.81382,-11.01574 33.69635,-27.82086 47.85229,-44.96951 24.1788,-29.29044 45.25563,-75.00607 53.79862,-116.68928 9.31322,-48.38595 8.33359,-93.83689 0.33058,-134.30278 C 321.7671,458.32813 304.65296,420.37374 267.93932,365.6941 236.146,318.34253 226.14254,293.73136 224.89176,259.78499 c -0.42064,-11.41367 -0.93561,-15.37009 -2.05671,-15.8003 -4.39566,-1.68678 -51.29573,56.34984 -54.9055,67.94299 -0.46489,1.4927 -2.43793,5.19091 -4.38466,8.21822 -15.96606,24.82835 -35.74038,70.60577 -42.79745,99.07581 -0.90037,3.63279 -2.63067,10.3204 -3.8448,14.86138 -4.16966,15.59374 -8.79837,47.42675 -10.20569,70.18745 -1.83873,29.73897 -0.36019,51.87143 6.08502,91.08596 2.70433,16.45351 5.98209,30.00768 11.25666,46.54906 0.82729,2.59438 1.50419,5.24379 1.50419,5.88761 0,1.53441 10.14657,26.73831 15.00889,37.28198 11.70052,25.37165 25.1559,48.55546 42.13816,72.60438 4.89687,6.93464 8.90735,13.12687 8.91208,13.76052 0.011,1.07646 5.63962,7.79486 20.6987,24.69305 3.44487,3.8656 6.65955,7.70479 7.1437,8.53153 1.3929,2.37837 3.67483,1.79659 9.86421,-2.5148 z m 573.90347,-2.88742 c 18.14001,-19.25853 22.64334,-24.38061 30.28923,-34.45066 8.82061,-11.61731 15.11755,-21.02935 19.44628,-29.06654 1.45818,-2.70736 3.65292,-6.32928 4.87729,-8.04869 3.47381,-4.8785 22.09599,-42.17782 25.95103,-51.97853 9.99752,-25.417 19.06285,-56.37311 22.8886,-78.15981 9.31159,-53.02822 9.41573,-81.86515 0.50881,-140.90782 -2.59424,-17.19678 -11.67949,-51.10958 -17.65267,-65.89309 -0.52432,-1.29753 -2.50782,-6.56986 -4.40788,-11.7163 -1.89995,-5.14644 -7.45182,-17.53091 -12.33736,-27.52106 -7.80794,-15.96608 -13.82889,-26.51898 -32.13413,-56.32144 -5.90867,-9.61977 -29.15956,-38.16642 -31.75777,-38.99107 -3.61132,-1.14618 -9.38468,3.9652 -34.2952,30.36281 -18.87362,20.00022 -35.64836,45.17771 -50.14425,75.26215 -24.24297,54.83118 -35.99039,111.47014 -29.86608,171.87696 2.95741,24.14489 3.50805,28.00685 5.16372,36.21657 2.48362,12.3151 10.83439,39.7166 16.61623,54.52289 9.53528,24.41822 24.27798,50.81796 43.99968,78.79027 4.23604,6.00828 16.54269,26.32663 19.3363,31.92442 3.30054,6.6135 9.01479,24.58296 11.20217,35.22697 0.87099,4.23824 1.93748,14.02198 2.36989,21.74163 0.54833,9.78736 1.18825,14.03574 2.11406,14.03574 0.73019,0 4.25464,-3.10743 7.83205,-6.9054 z"
       id="path839"
       sodipodi:nodetypes="ssssssssccssssssssssssscsssssssssccssssssssccsssccccsssssccssccssssssssssssssssssssssssssssssccssssssss" />
  </g>
</svg>
