<?xml version="1.0" encoding="UTF-8" standalone="no"?>
<svg xmlns:dc="http://purl.org/dc/elements/1.1/" xmlns:cc="http://creativecommons.org/ns#" xmlns:rdf="http://www.w3.org/1999/02/22-rdf-syntax-ns#" xmlns:svg="http://www.w3.org/2000/svg" xmlns="http://www.w3.org/2000/svg" xmlns:sodipodi="http://sodipodi.sourceforge.net/DTD/sodipodi-0.dtd" xmlns:inkscape="http://www.inkscape.org/namespaces/inkscape" version="1.0" width="840px" height="840px" viewBox="0 0 840 840" preserveAspectRatio="xMidYMid meet" id="svg296" sodipodi:docname="logo.svg" inkscape:version="1.0 (4035a4fb49, 2020-05-01)">
  <metadata id="metadata302">
    <rdf:RDF>
      <cc:Work rdf:about="">
        <dc:format>image/svg+xml</dc:format>
        <dc:type rdf:resource="http://purl.org/dc/dcmitype/StillImage"/>
      </cc:Work>
    </rdf:RDF>
  </metadata>
  <defs id="defs300"/>
  <sodipodi:namedview inkscape:document-rotation="0" pagecolor="#ffffff" bordercolor="#666666" borderopacity="1" objecttolerance="10" gridtolerance="10" guidetolerance="10" inkscape:pageopacity="0" inkscape:pageshadow="2" inkscape:window-width="2560" inkscape:window-height="1387" id="namedview298" showgrid="false" inkscape:zoom="0.3" inkscape:cx="-395.69883" inkscape:cy="91.746849" inkscape:window-x="-8" inkscape:window-y="-8" inkscape:window-maximized="1" inkscape:current-layer="svg296"/>
  <ellipse style="display:inline;fill:#fafad7;fill-opacity:1;stroke:none;stroke-width:6.35225;stroke-linecap:round;stroke-linejoin:round;paint-order:markers stroke fill" id="path1139" cx="421.31781" cy="420.13928" rx="405.99713" ry="404.81863"/>
  <g fill="#c7e927" id="g134" style="display:inline;fill:#d2f014;fill-opacity:1">
    <path sodipodi:nodetypes="ccccccsccccccccscccc" d="m 372.83,609.74 c -30.02,-2.63 -59.39,-11.73 -83.43,-25.92 -9.35,-5.58 -9.43,-6.48 -1.64,-15.26 30.17915,-33.73406 45.96453,-82.9306 46.34,-123.95 0.08,-40.36 -11.4,-77.19 -36.42,-116.48 -7.96,-12.63 -12.63,-21.57 -15.67,-30.35 -2.71,-7.71 -2.71,-7.88 -2.71,-23.38 0,-23.87 0.41,-24.77 18.79,-37.24 28.22,-19.2 58.9,-30.43 95.24,-34.95 13.13,-1.64 43.97,-1.64 56.44,0 44.38,5.82 85.97,24.45 115.75,51.93 5.74,5.33 5.5,6.15 -5.66,17.64 -15.18,15.59 -24.86,29.37 -33.71,47.74 -12.47,25.92 -18.54,52.34 -18.62,81.21 -0.16,41.1 9.93,73.42 35.52,114.02 7.88,12.39 11.48,19.52 11.48,22.31 0,2.05 -1.72,4.18 -10.42,12.63 -20.92,20.43 -39.13,32.65 -65.87,44.05 -18.7,8.04 -41.51,13.86 -61.52,15.67 -8.61,0.82 -36.09,0.98 -43.89,0.33 z" id="path126" style="display:inline;fill:#d2f014;fill-opacity:1"/>
    <path sodipodi:nodetypes="ccccsscccsscc" d="m 235.1,545.34 c -17.64,-26.82 -28.71,-55.86 -33.8,-88.84 -2.21,-13.95 -2.21,-53.89 -0.08,-67.68 3.77,-24.2 10.5,-45.45 20.84,-66.04 6.15,-12.3 7.46,-14.36 9.35,-14.36 0.82,0 1.56,0.49 1.56,1.07 0,0.57 1.15,2.13 2.54,3.53 7.96,7.55 28.3,38.14 37.24,56.11 28.01235,55.22118 17.89316,134.57481 -19.69,174.56 -5.82,5.99 -8.78,9.52 -8.29,10.01 0.57,0.57 0,0.82 -1.39,0.82 -1.97,0 -3.04,-1.23 -8.29,-9.19 z" id="path128" style="display:inline;fill:#d2f014;fill-opacity:1"/>
    <path sodipodi:nodetypes="cccc" d="m 567.82,328.95 c 3.53,-6.56 13.04,-19.52 17.06,-23.38 32.03647,29.58206 29.59694,148.50556 -4.27,190.88 -30.96198,-58.26581 -43.1989,-110.34165 -12.79,-167.5 z" id="path132" style="display:inline;fill:#d2f014;fill-opacity:1"/>
  </g>
  <g fill="#abce2f" id="g150" style="display:inline">
    <path sodipodi:nodetypes="ccccccc" style="display:inline" d="M 282.79761,575.52686 C 301.83774,587.4509 325.9398,597.6002 343.67,602.02 c 15.09,3.61 25.68,5 42.66,5.58 62.98385,-0.96736 115.29951,-21.67475 155.2,-60.3 l 10.5,-10.25 c 58.28383,68.03858 -26.14927,88.25157 -104.35,106.81 -174.58367,-0.92249 -193.85309,-49.32783 -164.88239,-68.33314 z" id="path140"/>
    <path sodipodi:nodetypes="cccc" style="display:inline" d="m 573.24,527.46 c 0.82,0 1.48,0.82 12.96,15.26 17.72363,24.78381 12.9175,14.66994 -4.6644,30.0812 -2.6259,-2.1089 -14.08983,-38.38563 -8.2956,-45.3412 z" id="path142"/>
    <path sodipodi:nodetypes="cccccccccccscc" d="m 609.08,535.66 c -10.50229,-15.53268 -21.96225,-29.06622 -28.47,-39.21 l 4.68,-10.17 c 17.15713,-38.47546 24.75706,-82.28622 19.03,-118.62 -3.53,-21.74 -8.94,-40.52 -15.67,-54.3 l -3.77,-7.79 6.4,-5.91 c 10.07456,-7.71973 9.4708,-9.03455 14.76,-1.15 18.62,27.81 29.7,56.68 35.11,91.96 2.13,13.62 2.21,51.43 0.08,64.8 -3.94,24.86 -9.76,44.05 -19.77,64.8 -6.4,13.29 -8.45,16.41 -10.83,16.41 -1.15,0 -1.89,-0.33 -1.56,-0.82 z" id="path146"/>
  </g>
  <g fill="#33bfa2" id="g188" style="display:inline;fill:#32bea0;fill-opacity:1">
    <path sodipodi:nodetypes="cccccccsssccccccccccc" d="m 706.7,627.38 c -11.73,-10.83 -21.41,-20.43 -21.57,-21.25 35.21971,-45.94182 55.84103,-115.64175 60.45917,-167.18 -0.10107,-10.61414 -2.27839,-7.59569 11.17084,-7.47 h 16 v -9.02 -9.02 h -14.77 c -12.55,0 -12.76479,0.67333 -12.76479,-0.39667 -0.6019,-13.6663 -0.43334,-16.03137 -1.84521,-28.72333 -0.74,-6.73 -1.31,-13.78 -1.39,-15.5 v -3.28 l 7.38,-1.39 c 7.71,-1.48 37.24,-6.81 44.3,-7.96 7.53487,-1.48047 7.19523,-1.46902 7.71,3.28 5.5,37.16 6.07,78.59 1.64,113.04 -7.55,59.23 -28.96,116.32 -62.43,166.36 l -5.58,8.37 -3.53,-0.08 c -3.36,0 -4.1,-0.57 -24.77,-19.77 z" id="path172" style="display:inline;fill:#32bea0;fill-opacity:1"/>
  </g>
  <g fill="#257cd7" id="g262" style="display:inline;fill:#32bea0;fill-opacity:1" transform="matrix(0.99930386,0,0,0.99285984,0.28666203,0.49202856)">
    <path d="m 67.51,400.15 c 0.82,-21.49 5.41,-49.3 12.06,-72.6 11.07,-39.29 28.79,-76.54 51.35,-108.12 2.05,-2.95 3.94,-5.33 4.18,-5.33 0.16,0 4.84,3.2 10.34,7.22 30.02,21.66 35.52,25.59 35.93,25.59 0.33,0 4.76,-5.25 10.01,-11.65 16.49,-20.51 32.57,-35.93 54.96,-52.75 6.64,-4.92 12.06,-9.43 12.06,-9.84 0,-0.74 -10.17,-16.73 -25.1,-39.54 -2.46,-3.69 -4.43,-7.05 -4.43,-7.46 0,-1.64 19.52,-13.21 34.86,-20.67 39.54,-19.2 78.26,-30.27 121.98,-34.86 6.64,-0.66 15.26,-1.23 19.11,-1.23 h 6.97 v 56.6 c 0,31.17 -0.25,56.6 -0.57,56.6 -10.25,0.16 -32.98,3.61 -47.82,7.38 -75.14,18.95 -138.06,74.89 -166.85,148.23 -8.2,20.92 -13.13,43.15 -15.67,69.81 l -0.57,5.91 h -56.68 -56.6 c 0.150783,-4.42554 0.349377,-8.88225 0.48,-13.29 z" id="path230" style="display:inline;fill:#32bea0;fill-opacity:1" sodipodi:nodetypes="cccscsccscsccscscccccccc"/>
  </g>
  <path style="display:inline;fill:#e64269;fill-opacity:1;stroke:none;stroke-width:4.94542;stroke-linecap:round;stroke-linejoin:round;paint-order:markers stroke fill" d="M 102.74906,634.48395 C 86.469674,609.40825 75.357843,587.99112 65.188457,562.08903 59.85422,548.50238 51.768855,524.28349 50.7513,518.84399 c -0.485638,-2.59605 -0.353453,-2.78841 2.282358,-3.32125 1.53882,-0.31108 12.922944,-3.20797 25.298055,-6.43752 12.37511,-3.22956 23.664817,-6.44636 24.007947,-6.06815 0.34313,0.37822 1.68479,7.94925 4.06178,15.74423 2.37699,7.79498 6.04059,18.56057 8.14135,23.92353 7.22911,18.455 23.87363,49.64541 33.13686,62.09566 3.25003,4.3682 3.30148,4.54041 1.78614,5.97822 -3.76048,3.56811 -38.84189,35.272 -39.0244,35.26729 -0.11138,-0.003 -3.57293,-5.19681 -7.69233,-11.54205 z" id="path1129" sodipodi:nodetypes="ssssssssssss"/>
  <path style="display:inline;fill:#e64269;fill-opacity:1;stroke:none;stroke-width:4.91654;stroke-linecap:round;stroke-linejoin:round;paint-order:markers stroke fill" d="m 663.88,410.73 c -6.21593,-94.05301 -61.32975,-162.31046 -114.6266,-193.84553 -4.35417,-2.6649 -8.23633,-5.11925 -8.62702,-5.45412 -0.78438,-0.67229 16.42758,-37.1736 17.99912,-38.14486 1.80088,-1.11301 28.31275,16.21645 42.54215,27.83682 59.5345,48.61859 97.95565,120.61426 103.47453,197.01129 0.46364,6.41816 0.79233,12.9375 0.79419,13.28125 -25.85799,-0.38294 -0.46511,0.026 -41.55634,-0.68485 z" id="path1131" sodipodi:nodetypes="ccssssccc"/>
  <path sodipodi:nodetypes="sssssssssss" style="display:inline;fill:#e64269;fill-opacity:1;stroke:none;stroke-width:4.91654;stroke-linecap:round;stroke-linejoin:round;paint-order:markers stroke fill" d="m 722.33676,331.60812 c -15.22965,-49.39171 -37.79873,-86.81309 -68.37399,-119.76639 -21.88395,-23.58601 -44.07031,-41.3243 -71.86857,-57.45986 -5.72916,-3.3255 -10.52875,-6.15081 -10.66575,-6.27845 -0.30665,-0.28572 11.37744,-25.60572 12.20877,-26.45703 1.37166,-1.4046 29.15866,15.94293 45.18579,28.20966 23.5738,18.04276 47.83322,41.97286 64.87964,63.99892 24.35994,31.47603 47.51272,75.83625 57.15444,109.50671 1.22374,4.27348 2.09645,7.8902 1.93938,8.03715 -0.59259,0.55438 -26.88687,7.19356 -28.25679,7.35364 0,0 0,0 -2.20292,-7.14435 z" id="path1133"/>
  <g inkscape:groupmode="layer" fill="#172436" id="g276" style="display:inline">
    <path d="m 400.31,833.68 c -22.89,-1.56 -37.49,-3.36 -56.19,-6.89 C 306.22,819.65 272.26,808.17 237.07,790.7 194.82,769.62 163.49,746.98 129.61,712.93 94.91,678.15 73.01,647.88 51.43,604.98 28.3,558.96 14.52,510.15 8.86,454.45 7.3,439.03 7.55,400.47 9.35,383.49 19.03,291.12 54.14,211.72 115.42,143.38 184,67.01 281.62,18.53 385.3,9.42 c 16,-1.39 51.52,-1.64 67.59,-0.41 100.08,7.71 192.04,50.37 262.58,121.9 14.77,15.01 22.72,24.12 34.62,39.7 44.87,58.73 72.68,126.98 81.7,199.99 10.58,86.05 -6.4,173.58 -48.64,250.36 -58.82,106.97 -165.79,184.32 -285.22,206.23 -13.04,2.38 -35.19,5.09 -51.27,6.23 -10.5,0.74 -37.24,0.9 -46.35,0.25 z m 19.52,-57.01 c 1.15,-1.48 1.64,-79.08 0.49,-80.23 -0.57,-0.57 -4.35,-0.82 -9.84,-0.66 l -8.94,0.25 -0.49,14.36 c -0.0961,62.32265 -0.82,65.21 0.25,66.28 1.39,1.39 17.39,1.31 18.54,0 z m 71.37,-5.99 c 0.25,-0.16 -0.57,-5.09 -1.89,-10.83 -1.23,-5.82 -2.3,-10.83 -2.38,-11.24 0,-0.41 3.04,-1.56 6.89,-2.46 12.14,-3.04 18.95,-7.55 22.56,-14.85 1.70761,-5.2595 1.65469,-7.81113 1.64,-12.3 -2.26712,-19.57332 -11.25758,-32.2819 -31.66,-28.39 -12.22,2.54 -29.53,6.97 -30.6,7.79 -1.07,0.82 -0.16,5.74 6.97,37.82 4.59,20.34 8.61,37.32 9.02,37.82 0.57,0.74 3.2,0.49 9.93,-0.98 5,-1.07 9.27,-2.13 9.52,-2.38 z m -111.56,2.13 c 1.56,-0.82 1.8,-1.64 1.8,-5.66 0,-8.53 0.49,-8.12 -10.91,-8.53 -11.16,-0.33 -15.83,-1.89 -17.64,-5.99 -1.48,-3.2 -1.31,-5.5 0.49,-5 4.1,1.15 29.2,5.41 32.07,5.41 1.8,0 3.77,-8.7 3.77,-16.41 0.48937,-16.739 -14.99857,-25.22837 -28.3,-25.43 -7.79,0 -12.8,1.64 -17.47,5.74 -9.02,7.96 -13.7,26 -9.93,38.47 2.3,7.96 10.34,14.68 20.84,17.47 6.15,1.72 22.07,1.64 25.27,-0.08 z m -68.5,-15.42 c 11.07,-26.82 29.04,-73.01 28.55,-73.5 -0.82,-0.82 -15.5,-6.32 -16.9,-6.32 -0.57,0 -2.05,2.46 -3.28,5.58 -3.28,7.88 -6.4,15.26 -6.64,15.67 -0.16,0.16 -1.15,-0.82 -2.3,-2.13 -1.07,-1.31 -3.94,-3.45 -6.4,-4.76 -7.01161,-3.30417 -15.20547,-3.71742 -21.33,-0.25 -5.09,3.04 -10.01,8.86 -13.37,15.83 -9.52,19.93 -6.81,34.62 7.63,41.26 6.52142,2.45492 9.81471,1.66786 16.65,1.39 -1.32338,5.403 3.94204,6.28705 6.24,7.22 3.94,1.56 7.79,2.87 8.53,2.95 0.82,0.08 1.8,-1.15 2.63,-2.95 z m 253.07,-8.2 c 3.77,-1.56 9.02,-6.48 10.99,-10.34 l 1.64,-3.28 1.8,2.3 1.8,2.21 7.55,-3.77 c 4.18,-2.05 7.55,-4.1 7.55,-4.51 0,-0.33 -3.45,-7.79 -7.63,-16.57 -4.27,-8.78 -9.84,-20.43 -12.47,-25.92 -2.63,-5.58 -5.09,-10.09 -5.41,-10.09 -0.98,0 -14.19,6.32 -15.75,7.46 -1.31,1.07 -1.23,1.48 1.15,6.48 8.78,18.38 13.86,30.6 13.45,31.99 -0.25,0.9 -1.64,2.54 -2.95,3.69 -3.28,2.71 -7.55,2.79 -10.01,0.08 -0.98,-1.07 -5.09,-9.35 -9.11,-18.46 -3.94,-9.11 -7.71,-16.49 -8.2,-16.49 -0.98,0 -13.86,5.58 -15.91,6.81 -1.39,0.9 -1.23,1.31 7.3,20.43 7.79,17.64 11.48,23.87 15.67,26.66 5.17,3.45 12.22,3.94 18.54,1.31 z M 252.08,713.26 c 12.22,-18.7 13.7,-21.49 14.27,-26.99 0.9,-8.45 -2.79,-15.09 -11.73,-21.49 -5.41,-3.86 -16.16,-8.86 -21.08,-9.76 -2.71,-0.49 -2.71,-0.49 -5.33,5 -1.39,3.04 -2.38,5.82 -2.13,6.23 0.25,0.41 2.79,1.72 5.58,3.04 12.39,5.58 17.14,10.25 15.34,15.09 -0.49,1.23 -1.23,2.21 -1.64,2.21 -0.49,0 -3.36,-1.64 -6.48,-3.61 -7.55,-4.92 -11.98,-6.56 -17.39,-6.56 -10.25,0 -18.87,8.94 -18.87,19.52 0,9.84 10.58,19.36 21.49,19.36 h 4.76 l -0.98,2.05 c -0.74,1.72 -0.74,2.38 0.25,3.36 1.72,1.64 12.47,8.45 13.21,8.29 0.33,-0.08 5.17,-7.22 10.75,-15.75 z m 369.3,3.69 c 8.37,-4.18 15.83,-10.17 19.36,-15.67 3.832,-6.28852 3.9313,-13.87142 0.99,-19.2 -1.23,-2.21 -3.86,-5.25 -5.82,-6.73 -3.2,-2.38 -4.18,-2.71 -8.86,-2.71 -4.18,0 -6.81,0.66 -13.45,3.36 -4.59,1.8 -8.94,3.2 -9.68,3.04 -0.82,-0.16 -1.48,-1.15 -1.64,-2.38 -0.33,-2.87 5.25,-7.79 12.96,-11.57 3.28,-1.56 5.66,-3.2 5.66,-3.94 0,-0.66 -1.15,-3.45 -2.63,-6.15 -3.2,-5.91 -3.69,-5.99 -13.37,-1.15 -8.04,3.94 -16.08,10.91 -18.79,16.41 -4.51,8.86 -1.56,20.26 6.64,25.02 3.28,1.89 4.35,2.13 8.78,1.72 3.36,-0.25 7.38,-1.39 11.89,-3.36 7.55,-3.36 11.07,-3.61 11.48,-0.74 0.41,2.79 -4.43,6.89 -13.62,11.65 -9.27,4.76 -9.02,3.86 -4.35,11.89 2.63,4.51 2.87,4.76 5.33,4.27 1.39,-0.33 5.5,-1.97 9.11,-3.77 z m 45.53,-37.49 c 2.05,-2.21 5,-5.33 6.56,-7.05 l 2.79,-3.04 -14.19,-14.27 -14.27,-14.27 c -0.7738,-6.81688 3.81552,-9.88917 7.95,-10.01 2.63,0 4.18,1.23 15.42,11.81 6.89,6.48 13.29,12.55 14.11,13.54 0.9,0.9 1.97,1.72 2.46,1.64 1.07,0 12.3,-12.63 12.63,-14.11 0.16,-0.98 -16.9,-17.72 -27.07,-26.5 -5.66,-4.92 -11.57,-7.71 -16.24,-7.71 -8.45,0 -16.98,6.97 -19.44,15.75 l -1.31,4.68 -9.43,-9.02 -9.43,-9.11 -6.89,6.89 c -3.69,3.69 -6.73,7.05 -6.64,7.38 0.33,0.82 58.32,57.26 58.9,57.26 0.25,0 2.13,-1.72 4.1,-3.86 z M 212.87,660.84 c 5.5,-2.46 14.6,-12.3 16.32,-17.47 5.06575,-17.3614 -9.2687,-29.72527 -15.75,-36.09 -7.05,-6.89 -13.29,-12.55 -13.95,-12.55 -0.66,0 -8.04,6.73 -16.49,14.93 -33.3,32.57 -38.64,37.9 -38.64,38.31 0,0.33 3.12,3.61 6.89,7.38 l 6.97,6.89 8.29,-7.88 c 4.51,-4.35 8.53,-7.96 8.94,-7.96 0.33,0 1.72,1.39 3.12,3.12 3.69,4.51 11.24,10.09 16.08,11.73 6.15,2.13 13.13,1.97 18.21,-0.41 z m -98.11,-18.7 c 2.13,-1.97 11.81,-10.75 21.49,-19.52 9.6,-8.78 19.28,-17.47 21.33,-19.28 12.47,-10.66 56.77,-51.11 57.18,-52.09 0.16,-0.41 -0.98,-2.63 -2.54,-5.09 C 194.58,518.27 181.79,478.24 179,442.14 l -0.57,-7.79 -55.54,-0.25 -55.62,-0.16 v -11.48 -11.48 h 55.29 55.29 l 0.57,-5.91 c 1.97,-20.67 4.84,-36.09 9.93,-52.99 18.62,-61.36 63.16,-115.17 120.09,-144.87 23.21,-12.06 45.53,-19.61 71.37,-24.2 7.3,-1.31 24.53,-3.28 28.96,-3.36 0.33,0 0.57,-24.94 0.57,-55.37 V 68.91 h 11.48 11.48 v 55.29 c 0,61.77 0.0284,55.93146 0.0284,55.93146 0,0 13.75166,0.90854 18.92166,1.56854 80.88,10.58 150.61,59.96 186.79,132.32 14.19,28.38 21.98,55.54 24.86,86.13 l 0.98,10.58 29.45,0.49 c 16.24,0.25 41.26,0.25 55.7,0 l 26.17,-0.49 v 11.57 11.65 h -55.7 -55.62 l -0.57,7.63 c -2.63,35.11 -15.18,75.22 -32.48,103.52 -1.8,2.95 -3.28,5.5 -3.28,5.66 0,0.33 44.21,40.44 56.6,51.35 3.86,3.36 15.91,14.36 26.82,24.45 10.91,10.01 20.18,18.21 20.67,18.21 0,0 22.97,-33.88 32.57,-53.73 C 799.24,519.1 810.8,442.89 798.99,361.93 789.31,296.22 760.11,231.42 716.22,178.84 706.13,166.62 677.26,137.74 665.85,128.31 603.51,76.96 530.01,47.02 450.52,40.62 439.77,39.72 400.15,39.96 388.01,41.03 317.63,46.85 249.54,72.94 192.37,115.68 137,157.19 93.44,212.89 67.35,275.81 39.05,343.98 30.76,419.69 43.89,489.75 c 7.63,40.36 23.95,85.15 44.21,121 5.33,9.35 21.74,34.86 22.48,34.86 0.16,0 2.05,-1.56 4.18,-3.45 z m 334.36,-1.15 c 36.09,-4.43 72.93,-19.36 100.49,-40.85 14.2205,-10.65031 11.92456,-38.27717 7.3,-52.58 -3.04,-9.11 -6.89,-16.41 -18.29,-34.62 -17.88,-28.79 -26.66,-51.68 -31.42,-82.28 -2.3,-14.6 -2.05,-45.94 0.41,-60.29 7.3,-41.51 22.97,-73.09 50.2,-100.73 l 9.76,-9.84 -4.18,-3.77 c -22.48,-20.26 -53.07,-36.83 -84.33,-45.61 -47,-13.21 -100.32,-9.43 -145.03,10.09 -33.14128,13.56443 -62.22808,35.30896 -50.7,73.17 3.12,9.35 7.71,18.29 17.96,34.86 19.61,31.83 28.88,56.77 33.47,89.82 1.64,11.65 1.39,41.51 -0.33,53.73 -4.84,33.06 -16.73,62.75 -34.86,87.12 -3.04,3.94 -9.84,11.65 -15.26,17.06 l -9.76,9.76 3.61,3.2 c 1.97,1.72 7.71,6.23 12.63,10.01 44.63,33.8 101.23,48.73 158.32,41.75 z m 145.2,-83.18 c 22.56,-28.71 36.83,-61.52 43.64,-99.91 4.81915,-25.46837 4.10696,-46.28003 0,-70.06 -5.66,-32.16 -16.65,-60.29 -33.14,-84.98 -8.45,-12.55 -19.11,-26.33 -20.43,-26.41 -1.64,0 -16.65,14.77 -22.07,21.66 -7.46,9.68 -12.3,17.55 -18.13,29.61 -12.71,26.33 -18.29,55.45 -16.08,84.33 2.79,36.5 11.4,61.11 33.8,96.14 5.5,8.61 10.83,17.23 11.89,19.28 4.59,9.02 9.43,28.71 9.43,38.39 v 4.51 l 2.13,-1.97 c 1.15,-1.07 5.17,-5.82 8.94,-10.58 z m -328.45,5 c 19.36,-17.96 34.04,-42.98 41.75,-71.45 4.51,-16.57 5.99,-28.05 6.07,-46.35 0,-18.87 -1.31,-29.86 -5.66,-46.84 -5.41,-21.08 -11.16,-33.96 -26.33,-59.06 -5.66,-9.35 -11.57,-19.52 -13.13,-22.64 -5.25,-10.42 -9.76,-26.33 -10.25,-36.18 -0.16,-2.3 -0.57,-3.77 -1.07,-3.61 -1.72,0.57 -12.96,14.93 -20.34,26 -31.25,46.84 -42.9,106.31 -31.75,162.42 5.66,28.38 15.75,53.32 31.25,76.78 7.88,12.14 19.93,27.4 21.49,27.4 0.49,0 4.1,-2.95 7.96,-6.48 z" id="path264" sodipodi:nodetypes="cccccccccccccccccccscccscccccccccscccccscccsccccccccssccccccccccccccccccsccsccccccsccccccccccsccscsssccccccccccsccccscccccccccccccccccccccccsccccscscccccscscccsccccccccccccccccccccccscccsccscccccccccccsccsccccccccccsccccccccccccccccccccccccccccccccccscccccccccccccccscc" style="display:inline"/>
    <path d="m 480.38,720.64 c -1.23,-5.66 -2.21,-10.42 -2.05,-10.58 0.9,-0.66 8.45,-2.13 11.24,-2.13 4.18,0 7.05,2.79 8.37,8.2 2.05,8.45 -1.48,12.55 -11.89,14.27 l -3.28,0.57 -2.38,-10.34 z" id="path266" style="display:inline"/>
    <path d="m 363.4,736.64 c -1.56,-0.33 -4.27,-0.9 -5.91,-1.15 -3.61,-0.66 -3.86,-1.64 -1.23,-5.41 2.13,-3.28 5.66,-4.43 9.35,-3.2 3.45,1.15 5.17,3.61 5.17,7.46 0,2.87 -0.16,3.12 -2.21,3.04 -1.31,-0.08 -3.61,-0.41 -5.17,-0.74 z" id="path268" style="display:inline"/>
    <path d="m 289,735.41 c -5.91,-2.54 -6.32,-6.48 -1.72,-17.39 2.95,-7.14 5.99,-10.09 10.34,-10.09 3.2,0 8.12,2.46 8.86,4.43 0.74,1.89 -6.89,20.34 -9.19,22.48 -2.38,2.05 -4.51,2.21 -8.29,0.57 z" id="path270" style="display:inline"/>
    <path d="m 225.75,703.01 c -10.82228,-7.10651 -2.19623,-14.79359 5.24625,-10.965 2.77041,1.62637 4.99791,3.7075 7.14375,6.035 l -2.46,3.12 c -2.95,3.61 -5.99,4.18 -9.93,1.8 z" id="path272" sodipodi:nodetypes="cccccc" style="display:inline"/>
    <path d="m 197.86,643.29 c -0.98,-0.16 -3.94,-2.21 -6.4,-4.51 l -4.59,-4.27 7.46,-7.22 c 4.02,-3.94 7.71,-7.14 8.12,-7.14 1.39,0 8.29,8.04 8.86,10.17 1.39,5.74 -7.22,14.03 -13.45,12.96 z" id="path274" style="display:inline"/>
  </g>
</svg>