<?xml version="1.0" encoding="UTF-8" standalone="no"?>
<svg
   xmlns:dc="http://purl.org/dc/elements/1.1/"
   xmlns:cc="http://creativecommons.org/ns#"
   xmlns:rdf="http://www.w3.org/1999/02/22-rdf-syntax-ns#"
   xmlns:svg="http://www.w3.org/2000/svg"
   xmlns="http://www.w3.org/2000/svg"
   xmlns:sodipodi="http://sodipodi.sourceforge.net/DTD/sodipodi-0.dtd"
   xmlns:inkscape="http://www.inkscape.org/namespaces/inkscape"
   inkscape:version="1.0 (4035a4fb49, 2020-05-01)"
   sodipodi:docname="logo.svg"
   viewBox="0 0 1024 1024"
   height="1024"
   width="1024"
   id="svg2"
   version="1.1">
  <metadata
     id="metadata8">
    <rdf:RDF>
      <cc:Work
         rdf:about="">
        <dc:format>image/svg+xml</dc:format>
        <dc:type
           rdf:resource="http://purl.org/dc/dcmitype/StillImage" />
        <dc:title />
      </cc:Work>
    </rdf:RDF>
  </metadata>
  <defs
     id="defs6" />
  <sodipodi:namedview
     inkscape:current-layer="g10"
     inkscape:window-maximized="1"
     inkscape:window-y="-8"
     inkscape:window-x="-8"
     inkscape:cy="426.69552"
     inkscape:cx="377.61671"
     inkscape:zoom="0.69605824"
     showgrid="false"
     id="namedview4"
     inkscape:window-height="1387"
     inkscape:window-width="2560"
     inkscape:pageshadow="2"
     inkscape:pageopacity="0"
     guidetolerance="10"
     gridtolerance="10"
     objecttolerance="10"
     borderopacity="1"
     bordercolor="#666666"
     pagecolor="#ffffff"
     inkscape:document-rotation="0" />
  <g
     style="display:inline"
     id="g10"
     inkscape:label="Image"
     inkscape:groupmode="layer">
    <path
       sodipodi:nodetypes="ccsscc"
       style="display:inline;fill:#f44470;stroke-width:1.21763"
       d="m 659.14876,87.492936 c 116.4768,57.346454 214.74878,160.688424 260.22111,263.030844 3.89604,9.46804 12.501,32.53811 14.59389,39.12639 4.68584,14.7503 12.72672,45.39603 12.71399,48.4552 -0.009,1.9763 0.79045,5.34023 1.77507,7.47539 C 825.04556,475.06655 294.57248,-90.384184 659.14876,87.492936 Z"
       id="path843" />
    <path
       sodipodi:nodetypes="ccsssccccccc"
       style="display:inline;fill:#23b892;stroke-width:1.00299"
       d="M 305.2311,909.39567 C 163.18305,846.74169 164.77093,680.45521 103.49963,549.35112 85.919634,511.97505 79.590134,468.25541 85.702334,426.4213 c 10.7921,-73.86349 40.941696,-138.52486 96.295196,-206.523 31.9624,-39.26374 77.7265,-76.77241 123.9605,-101.59914 29.264,-15.71424 62.0951,-28.83536 88.2794,-35.281339 40.8712,-9.309756 87.5624,-16.800879 124.612,-9.118307 31.0347,5.083176 45.1745,30.625016 24.183,45.534166 127.9251,28.6982 298.2471,190.301 334.2127,300.24464 -1.4352,-4.02859 1.09,-26.69104 2.56,-40.4579 9.5124,-53.92543 120.89487,27.54544 72.5471,233.84514 -58.8,265.04144 -355.13883,424.22654 -647.12113,296.33011 z"
       id="path841" />
    <path
       id="path843-0"
       d="M 405.74633,903.84437 C 159.94173,865.50693 59.165134,737.01973 57.441034,525.1826 66.920534,445.61188 492.23583,891.25241 405.74633,903.84437 Z"
       style="display:inline;fill:#f44470;stroke-width:1.21279"
       sodipodi:nodetypes="ccc" />
    <ellipse
       ry="377.90475"
       rx="374.85715"
       cy="513.01593"
       cx="514.06354"
       id="path865"
       style="display:inline;fill:#ecec15;fill-opacity:1;stroke-width:1.03206;stroke-linecap:round;stroke-linejoin:round;paint-order:markers stroke fill" />
    <path
       sodipodi:nodetypes="sssssssssssssssccccccsssssssssscsssssssssssss"
       style="display:inline;fill:#ffffff;fill-opacity:1"
       d="m 260.19613,763.77767 c 17.6597,-13.13869 34.9802,-31.27417 48.8287,-51.12626 6.649,-9.53144 13.9682,-23.07209 22.7795,-42.14224 5.584,-12.08542 12.7895,-35.06353 15.7911,-50.35776 5.2439,-26.71929 5.6706,-31.20733 5.7035,-60 0.032,-28.26027 -0.3262,-32.70797 -4.4738,-55.5 -2.1238,-11.67088 -6.2608,-28.85506 -7.8242,-32.5 -0.4718,-1.1 -2.081,-5.825 -3.576,-10.5 -7.8846,-24.65589 -22.2489,-52.44639 -43.3388,-83.84708 -6.4081,-9.5409 -13.7522,-20.65492 -16.3203,-24.69783 -10.4484,-16.44851 -19.2251,-35.57176 -22.3952,-48.79633 -0.8119,-3.38732 -1.9799,-7.95876 -2.5955,-10.15876 -0.6155,-2.2 -1.3938,-10.03883 -1.7296,-17.41963 -0.3764,-8.27452 -1.028,-13.5577 -1.6997,-13.77976 -2.7268,-0.90153 -33.4161,36.02086 -43.7185,52.59799 l -4.5982,7.3986 2.203,2.87766 c 11.622,14.00382 22.6631,29.86189 30.333,41.32514 77.9834,97.52708 119.2494,257.22429 -5.4698,367.79301 l -5.3397,4.67391 c 8.4574,10.82395 14.2836,17.15138 20.5872,24.31832 3.2492,3.69312 6.2916,6.71476 6.761,6.71476 0.4693,0 5.0109,-3.09318 10.0923,-6.87374 z m 538.6337,-23.57784 c 6.7775,-8.19359 21.1053,-28.30682 21.1053,-29.62743 0,-0.45819 -4.6202,-5.69036 -10.2672,-11.62703 -23.8078,-25.0293 -45.2062,-55.75571 -59.6549,-85.65996 -10.5858,-21.90911 -19.875,-52.31042 -23.7214,-77.634 -2.1977,-14.469 -2.5406,-59.47291 -0.5638,-74 5.091,-37.41254 20.2238,-77.42316 40.8478,-108 9.9028,-14.68186 15.5107,-21.38634 31.0444,-37.11534 l 11.4711,-11.61535 -4.328,-5.38503 c -2.3804,-2.96177 -5.6542,-7.18486 -7.275,-9.38466 -5.4002,-7.32904 -14.8264,-17.49962 -16.2189,-17.49962 -1.7549,0 -33.2437,31.46247 -39.8443,39.81111 -26.3785,33.36386 -47.0351,77.61188 -56.4997,121.0267 -7.5058,34.42956 -7.468,89.4167 0.086,124.66219 8.015,37.39777 24.7622,75.68137 48.1198,110 4.1176,6.05 11.6973,17.75 16.8436,26 11.8123,18.93613 13.1487,20.67975 30.4607,39.74123 4.95,5.45022 9.675,10.75879 10.5,11.79682 0.825,1.03803 1.552,1.90411 1.6155,1.92464 0.064,0.0205 2.8891,-3.3159 6.2792,-7.41427 z"
       id="path845" />
    <path
       style="display:inline;fill:#232b3c"
       d="m 486.43513,917.06532 c -2.2,-0.22082 -9.175,-0.88884 -15.5,-1.48448 -53.7153,-5.05857 -110.6499,-23.30117 -158.7518,-50.86618 -59.9479,-34.35345 -110.8627,-84.41439 -146.5203,-144.06325 -19.9296,-33.33878 -38.2313,-78.40164 -45.6103,-112.30297 -2.1606,-9.92672 -6.5049,-36.26005 -8.1161,-49.19703 -4.6968,-37.71204 -3.643,-77.12111 3.0887,-115.5 15.227,-86.81326 59.7841,-167.66377 124.6528,-226.18689 30.3753,-27.40405 57.2751,-45.43995 98.257,-65.87981 72.0677,-33.23913 160.226,-46.28215 231,-36.27077 50.3148,8.16457 83.3872,18.57627 123.5,38.8797 48.2241,24.40901 87.5024,55.13075 124.6016,97.45777 34.7982,39.70191 64.4546,94.08724 79.8866,146.5 2.2671,7.7 4.7748,16.11734 5.5726,18.70519 1.9196,6.22691 7.9535,42.16941 9.6183,57.29481 1.7017,15.45989 1.7121,65.25216 0.017,80 -5.8349,50.7561 -17.6516,92.56746 -38.2545,135.3561 -13.0825,27.17014 -29.4827,53.23987 -48.5303,77.1439 -13.7449,17.24931 -46.1295,49.65933 -62.9111,62.96047 -61.4858,48.73385 -135.4381,78.66198 -212.5,85.99769 -11.9422,1.13681 -56.5004,2.15832 -63.5,1.45575 z m 55,-39.29684 c 8.8,-0.61801 18.475,-1.55464 21.5,-2.0814 3.025,-0.52676 8.65,-1.46955 12.5,-2.09508 10.0146,-1.62714 42.7393,-9.73902 51,-12.642 21.1912,-7.44705 42.2836,-16.61787 59.7332,-25.97158 21.0943,-11.30741 30.4811,-19.29814 36.5169,-31.08578 5.9382,-11.59685 7.7575,-20.14849 7.7103,-36.24123 -0.081,-27.70969 -7.9115,-48.21145 -32.5664,-85.26887 -28.6432,-43.052 -42.9665,-76.92716 -53.3737,-126.23113 -4.1167,-19.50282 -6.5131,-61.6289 -4.6079,-81 0.6492,-6.6 1.62,-16.725 2.1574,-22.5 1.5946,-18.0371 6.809,-37.51242 11.374,-53.5 4.1375,-14.50142 5.9868,-19.73154 11.9778,-33.87685 19.6027,-46.28363 44.3056,-80.69577 82.8361,-115.39375 2.6083,-2.34882 4.7423,-4.92643 4.7423,-5.728 0,-2.79151 -27.2056,-23.86501 -48.3176,-37.42687 -29.9391,-19.23219 -58.8801,-32.29432 -94.1641,-42.49977 -21.6928,-6.27436 -31.2902,-8.28828 -52.5183,-11.02052 -29.8488,-3.8418 -48.4251,-4.19937 -80.5,-1.54952 -40.6727,3.36015 -84.0335,15.27423 -122.5,33.65888 -17.2384,8.23891 -26.453,14.00116 -35.5725,22.24497 -28.2557,28.38814 -35.6376,55.76994 -26.5307,87.59143 1.878,6.51954 5.6346,15.84452 9.2228,22.8938 5.9791,11.74631 8.9513,16.6207 25.6744,42.1062 4.6917,7.15 9.504,14.575 10.694,16.5 1.1899,1.925 3.7459,5.975 5.68,9 23.9593,37.93816 38.5361,84.30112 44.5745,123.5 2.571,16.88096 2.7393,20.02049 2.7084,50.5 1.1042,37.56564 -5.9548,76.61556 -18.4222,110.31358 -10.9722,29.26349 -24.7912,54.4765 -42.5791,77.68642 -10.314,13.45778 -31.4022,34.61438 -43.932,44.07443 -3.0347,2.29122 -5.5176,4.76245 -5.5176,5.49162 0,1.42792 11.3,10.07389 25,19.12829 44.2147,29.22169 86.8633,46.6968 137,56.13531 17.2665,3.25051 23.7448,4.08794 39.9232,5.16077 8.4828,0.56251 15.6828,1.28491 16,1.60533 0.7185,0.72575 21.4292,0.006 42.5768,-1.47868 z M 256.19543,768.00149 c 14.3652,-10.00664 30.6096,-25.27233 43.4688,-40.85008 21.9639,-26.6073 41.11,-68.13516 48.8704,-106 8.4601,-43.95356 7.5702,-85.24098 0.3003,-122 -8.6506,-43.47592 -24.197,-77.95351 -57.5475,-127.62424 -28.8809,-43.01394 -37.968,-65.37061 -39.1042,-96.20733 -0.3821,-10.36812 -0.8499,-13.96212 -1.8683,-14.35292 -3.993,-1.53226 -46.5968,51.18793 -49.8759,61.71909 -0.4223,1.35597 -2.2146,4.7154 -3.983,7.4654 -14.5035,22.55395 -32.4664,64.13795 -38.877,90 -0.8179,3.3 -2.3897,9.375 -3.4926,13.5 -3.7877,14.16528 -7.9924,43.08223 -9.2708,63.75795 -1.6703,27.01474 -0.3272,47.11976 5.5276,82.74205 2.4566,14.94629 5.4341,27.25884 10.2255,42.28495 0.7515,2.35672 1.3664,4.76344 1.3664,5.34827 0,1.39385 9.2171,24.28896 13.634,33.86678 10.6287,23.04749 22.8515,44.10755 38.2781,65.95347 4.4483,6.2994 8.0914,11.9244 8.0957,12.5 0.01,0.97785 5.123,7.08081 18.8026,22.43105 3.1293,3.51149 6.0495,6.99899 6.4893,7.75 1.2653,2.16049 3.3382,1.63201 8.9606,-2.28444 z m 521.3312,-2.62292 c 16.4783,-17.49435 20.5691,-22.14723 27.5146,-31.29481 8.0126,-10.55311 13.7327,-19.10297 17.6649,-26.40391 1.3246,-2.45935 3.3183,-5.74948 4.4305,-7.31139 3.1556,-4.43161 20.0719,-38.31413 23.5738,-47.21705 9.0817,-23.08868 17.3166,-51.20907 20.7919,-71 8.4586,-48.17058 8.5532,-74.36591 0.4622,-128 -2.3566,-15.62147 -10.6096,-46.4277 -16.0356,-59.85697 -0.4763,-1.17867 -2.2781,-5.96803 -4.0041,-10.64303 -1.7259,-4.675 -6.7692,-15.925 -11.2072,-25 -7.0927,-14.50351 -12.5621,-24.08972 -29.1905,-51.16213 -5.3674,-8.73855 -26.4884,-34.6702 -28.8486,-35.4193 -3.2805,-1.04119 -8.525,3.60196 -31.1536,27.58143 -17.1447,18.1681 -32.3828,41.03922 -45.5508,68.36778 -22.0222,49.80839 -32.6935,101.25895 -27.1302,156.13222 2.6865,21.9331 3.1867,25.44129 4.6907,32.89895 2.2561,11.18699 9.8419,36.07838 15.0941,49.52834 8.6618,22.1814 22.054,46.1628 39.9691,71.57271 3.848,5.45789 15.0273,23.91498 17.565,29 2.9982,6.00766 8.189,22.33103 10.176,32 0.7912,3.85 1.76,12.7375 2.1528,19.75 0.4981,8.89079 1.0794,12.75 1.9204,12.75 0.6633,0 3.8649,-2.82278 7.1146,-6.27284 z"
       id="path839"
       sodipodi:nodetypes="ssssssssccssssssssssssssssssssssccssssssssccsssccccssssssssssccssssssssssssssssssssssssssssssccssssssss" />
  </g>
</svg>
