<?xml version="1.0" encoding="UTF-8" standalone="no"?>
<svg
   xmlns:dc="http://purl.org/dc/elements/1.1/"
   xmlns:cc="http://creativecommons.org/ns#"
   xmlns:rdf="http://www.w3.org/1999/02/22-rdf-syntax-ns#"
   xmlns:svg="http://www.w3.org/2000/svg"
   xmlns="http://www.w3.org/2000/svg"
   xmlns:sodipodi="http://sodipodi.sourceforge.net/DTD/sodipodi-0.dtd"
   xmlns:inkscape="http://www.inkscape.org/namespaces/inkscape"
   sodipodi:docname="logo.svg"
   inkscape:version="1.0 (4035a4fb49, 2020-05-01)"
   id="svg923"
   version="1.1"
   viewBox="0 0 210 297"
   height="297mm"
   width="210mm">
  <defs
     id="defs917" />
  <sodipodi:namedview
     inkscape:window-maximized="0"
     inkscape:window-y="26"
     inkscape:window-x="26"
     inkscape:window-height="1198"
     inkscape:window-width="1274"
     showgrid="false"
     inkscape:document-rotation="0"
     inkscape:current-layer="layer1"
     inkscape:document-units="mm"
     inkscape:cy="560"
     inkscape:cx="400"
     inkscape:zoom="0.35"
     inkscape:pageshadow="2"
     inkscape:pageopacity="0.0"
     borderopacity="1.0"
     bordercolor="#666666"
     pagecolor="#ffffff"
     id="base" />
  <metadata
     id="metadata920">
    <rdf:RDF>
      <cc:Work
         rdf:about="">
        <dc:format>image/svg+xml</dc:format>
        <dc:type
           rdf:resource="http://purl.org/dc/dcmitype/StillImage" />
        <dc:title></dc:title>
      </cc:Work>
    </rdf:RDF>
  </metadata>
  <g
     id="layer1"
     inkscape:groupmode="layer"
     inkscape:label="Layer 1">
    <path
       style="fill:#46a0cb;stroke:none;stroke-width:0.264583"
       d="m 70.019422,173.01708 c -3.026093,-10.77273 -6.472338,-20.78999 -6.075098,-31.48542 0.971815,-22.18955 13.593498,-42.555054 33.591765,-52.554188 6.993991,-3.496892 14.498901,-5.138526 22.225001,-5.87383 13.33447,-1.269021 27.6135,3.829659 38.1,11.830659 3.93938,3.005667 7.49326,6.475149 10.58227,10.349439 0.75168,0.94271 2.31458,4.06506 3.65945,4.06506 0.9025,0 1.37742,-1.56951 1.69863,-2.21297 1.19618,-2.39739 2.17646,-4.89347 3.09562,-7.408337 0.46038,-1.259681 1.41817,-3.132667 1.15491,-4.497917 C 170.2656,82.086625 150.97615,73.287102 138.81109,70.471033 107.99348,63.66431 74.946228,78.106087 59.782428,106.07749 c -8.743236,16.12768 -11.852011,34.93003 -7.963721,52.91667 0.885931,4.09813 2.022184,8.26161 3.546766,12.17083 1.759331,4.00496 0.924597,4.11422 5.128949,3.72692 3.241146,-0.26061 6.398948,-0.9943 9.525,-1.87483 m 114.035418,-69.85 c -4.43876,10.06313 -9.41377,10.88094 -5.1861,20.90208 1.60681,4.04971 2.19974,7.10223 2.54026,11.41547 11.1691,-11.62624 11.33957,-20.91487 2.64584,-32.31755 m 10.05416,28.31041 c -2.41591,3.17342 -5.37157,5.93328 -8.20208,8.7302 -1.13956,1.12606 -2.65623,3.20442 -3.46321,4.6038 -0.95912,1.66317 -0.61772,4.05627 -0.84579,5.98059 -0.58711,4.95776 -1.65683,9.85758 -3.37794,14.55208 -7.26519,19.81464 -25.39841,35.70473 -46.55264,38.55455 -10.81829,1.45733 -21.80696,-0.20478 -31.750001,-4.76964 -3.127905,-1.43589 -6.100763,-3.20675 -8.995834,-5.06042 -1.20941,-0.77444 -2.502694,-2.22859 -3.96875,-2.44555 -1.515269,-0.22436 -3.408891,1.07792 -4.7625,1.6555 -3.167062,1.35123 -6.423819,2.77945 -9.789583,3.55098 10.849314,13.15459 31.027318,20.30349 45.243748,21.45479 35.91613,2.51751 69.33644,-22.38137 76.41167,-57.96729 1.34117,-6.74503 1.90156,-13.52153 1.39938,-20.37292 -0.19103,-2.60535 -0.20453,-6.09071 -1.34647,-8.46667 M 45.148591,149.46916 c -2.994272,1.48175 -6.071606,6.69925 -7.423839,9.26042 -4.906378,9.29296 -8.929317,24.5274 1.338422,31.90134 7.386426,5.30463 18.071489,4.46511 26.458331,2.39553 19.601127,-4.83737 37.559195,-17.18389 51.592695,-31.38646 11.93432,-11.08896 26.96921,-34.43207 12.26582,-19.10549 -3.39831,3.39804 -9.51363,9.05979 -13.3231,11.99323 -15.24899,11.74274 -34.303227,23.23227 -53.710415,25.89768 -9.385486,1.28905 -21.083903,-0.79798 -22.180072,-12.17083 -0.409125,-4.24445 1.150366,-9.25354 2.704873,-13.13974 0.757608,-1.89389 3.188748,-5.92582 2.277285,-5.64568 z"
       id="path837"
       sodipodi:nodetypes="cccsssscscccsccccccccssccccscccccscccsccccsssc" />
    <path
       id="path879-7"
       d="m 120.90814,195.98243 c 0,-0.1629 0.96059,-1.21393 2.13465,-2.33563 2.54461,-2.43109 4.33115,-5.05102 6.73204,-9.87234 2.56915,-5.15926 4.29741,-7.67208 7.38219,-10.73345 4.45442,-4.42058 9.33876,-7.27823 15.14932,-8.86336 3.16566,-0.86359 8.18698,-0.98481 11.60087,-0.28005 2.12604,0.45682 4.26998,0.69764 6.42932,0.89833 l -0.38031,1.07789 c -0.57155,1.61992 -2.53275,5.19844 -4.24383,7.74355 -3.95852,5.88791 -9.15496,10.95527 -15.16854,14.79175 -5.0727,3.23621 -12.07207,5.98853 -17.86176,7.02368 -3.69374,0.6604 -11.77395,1.0376 -11.77395,0.54963 z m -25.662258,-9.14012 c 11.242538,-7.29128 12.038038,-8.93386 16.563708,-13.04487 9.58403,-8.75137 20.92373,-22.48469 26.26463,-34.31342 2.65994,-5.89102 6.62787,-18.45183 3.02408,-13.65241 -7.51316,8.27361 -21.28456,21.47747 -32.42791,29.159 -3.50102,2.38372 -7.97081,5.23594 -8.20542,5.23594 -0.0798,0 -1.614775,0.84756 -3.410926,1.88348 -3.814921,2.20024 -8.35279,4.39289 -13.700458,6.61992 l -3.820181,1.5909 -0.471398,-0.61538 c -0.696748,-0.90957 -2.98395,-5.59573 -3.916172,-8.02371 -1.039691,-2.70789 -2.250622,-7.31451 -2.669619,-10.15577 -0.418455,-2.83755 -0.193675,-8.96026 0.388278,-10.5762 1.25997,-3.49864 5.604984,-6.68531 10.596208,-7.77136 0.755918,-0.16448 4.649764,-0.31266 9.004726,-0.34266 8.766092,-0.0604 11.185732,-0.38297 16.957042,-2.26058 6.90644,-2.24691 12.29638,-5.69234 17.42075,-11.13594 4.02902,-4.28002 7.00434,-9.45626 9.12577,-15.87636 1.33217,-4.031517 2.25356,-6.145397 4.39036,-6.810181 6.79714,-2.013535 18.60653,7.676871 22.76464,12.409251 7.94004,9.30478 12.64494,22.79616 11.90276,34.13125 -0.27583,4.21261 -0.94734,8.50731 -1.49942,9.58948 -1.0132,1.98598 -3.02035,2.49979 -6.4494,1.65095 -9.53646,-2.11221 -15.31343,-1.46383 -23.54792,1.82504 -10.4493,4.14277 -18.31136,13.79923 -22.74133,23.32532 -1.00852,2.17699 -2.22613,4.57517 -2.70582,5.32928 -1.83634,2.88677 -4.69633,5.0337 -8.02264,6.02243 -5.96244,2.09291 -12.909788,-0.24511 -14.814338,-4.1934 z M 74.215385,127.61665 c 0.604293,-2.87822 4.36812,-10.90049 6.7964,-14.48594 5.188786,-7.66143 12.791535,-14.224161 20.724245,-17.889306 2.95479,-1.365199 8.4994,-3.138093 12.04008,-3.84983 2.64451,-0.531598 5.88796,-1.088942 9.41385,-1.067868 3.51829,0.02103 10.15359,0.638974 10.15359,1.371768 0,0.102156 -0.56748,0.664237 -1.26105,1.249067 -1.5575,1.313312 -2.36781,2.775774 -3.78818,6.836924 -0.60841,1.739535 -1.4973,3.943945 -1.97535,4.898685 -4.064,8.11652 -11.35293,14.22016 -20.62438,17.27059 -4.75413,1.56418 -7.132818,1.8894 -13.361453,1.82684 -2.983177,-0.03 -6.43599,0.0774 -7.672917,0.2386 -3.147007,0.41013 -6.123416,1.54608 -8.202078,3.13036 -2.072992,1.57996 -2.494314,1.66827 -2.242757,0.47011 z"
       style="fill:#dfd90f;stroke-width:0.264583"
       sodipodi:nodetypes="sssssccsssssccsccssscsssssssssccssccccccssssssssssssss" />
  </g>
</svg>
