<?xml version="1.0" encoding="UTF-8" standalone="no"?>
<svg
   xmlns:dc="http://purl.org/dc/elements/1.1/"
   xmlns:cc="http://creativecommons.org/ns#"
   xmlns:rdf="http://www.w3.org/1999/02/22-rdf-syntax-ns#"
   xmlns:svg="http://www.w3.org/2000/svg"
   xmlns="http://www.w3.org/2000/svg"
   xmlns:sodipodi="http://sodipodi.sourceforge.net/DTD/sodipodi-0.dtd"
   xmlns:inkscape="http://www.inkscape.org/namespaces/inkscape"
   width="123.74579mm"
   height="123.74579mm"
   viewBox="0 0 123.74579 123.74579"
   version="1.1"
   id="svg8"
   inkscape:version="1.0 (4035a4fb49, 2020-05-01)"
   sodipodi:docname="favicon.svg">
  <defs
     id="defs2" />
  <sodipodi:namedview
     id="base"
     pagecolor="#ffffff"
     bordercolor="#666666"
     borderopacity="1.0"
     inkscape:pageopacity="0.0"
     inkscape:pageshadow="2"
     inkscape:zoom="1.4"
     inkscape:cx="173.86634"
     inkscape:cy="251.13198"
     inkscape:document-units="mm"
     inkscape:current-layer="text837"
     inkscape:document-rotation="0"
     showgrid="false"
     inkscape:window-width="2560"
     inkscape:window-height="1387"
     inkscape:window-x="-8"
     inkscape:window-y="-8"
     inkscape:window-maximized="1" />
  <metadata
     id="metadata5">
    <rdf:RDF>
      <cc:Work
         rdf:about="">
        <dc:format>image/svg+xml</dc:format>
        <dc:type
           rdf:resource="http://purl.org/dc/dcmitype/StillImage" />
        <dc:title />
      </cc:Work>
    </rdf:RDF>
  </metadata>
  <g
     inkscape:label="Layer 1"
     inkscape:groupmode="layer"
     id="layer1"
     transform="translate(-44.099472,-75.370003)">
    <rect
       ry="12.473214"
       style="fill:#00b982;fill-opacity:1;stroke-width:1.12841;stroke-linecap:round;stroke-linejoin:round;stroke-opacity:0.995984;paint-order:markers stroke fill;stop-color:#000000"
       id="rect833"
       width="123.74579"
       height="123.74579"
       x="44.099472"
       y="75.370003" />
    <g
       transform="translate(0.52916663,6.3500003)"
       aria-label="{...}"
       id="text837"
       style="font-style:normal;font-variant:normal;font-weight:normal;font-stretch:normal;font-size:69.9281px;line-height:1.25;font-family:impact;-inkscape-font-specification:impact;text-align:center;letter-spacing:3.64208px;word-spacing:0px;text-anchor:middle;stroke-width:0.364782;stroke-miterlimit:4;stroke-dasharray:none">
      <path
         d="m 54.078667,137.98134 v -8.1947 q 3.72176,-0.0342 5.599711,-2.18526 1.877952,-2.18525 1.877952,-9.76535 0,-5.77043 0.409735,-8.53614 0.44388,-2.79986 2.08282,-4.67781 1.63894,-1.87795 4.233928,-2.69742 2.594988,-0.85362 7.341084,-0.85362 h 1.809663 v 8.16056 q -4.950964,0 -5.941157,1.02434 -0.956048,1.02433 -1.024337,3.99491 -0.204868,8.1947 -0.546313,10.65311 -0.307302,2.45841 -1.502362,4.71195 -1.160916,2.2194 -4.370506,4.26808 3.038867,1.8438 4.404651,4.40465 1.399927,2.56084 1.638939,7.37523 l 0.512169,9.93607 q 0.307301,1.43407 1.468217,2.15111 1.160916,0.75118 5.326555,0.75118 v 8.1947 h -1.775519 q -5.463132,0 -8.433711,-1.26335 -2.970578,-1.22921 -4.302217,-4.06321 -1.331639,-2.834 -1.331639,-9.15074 0,-6.9655 -0.478024,-8.91174 -0.478024,-1.94624 -1.843807,-3.55104 -1.365783,-1.63894 -5.155832,-1.77551 z"
         style="font-style:normal;font-variant:normal;font-weight:normal;font-stretch:normal;font-size:69.9281px;font-family:impact;-inkscape-font-specification:impact;text-align:center;text-anchor:middle;fill:#ffffff;fill-opacity:1;stroke-width:0.364782;stroke-miterlimit:4;stroke-dasharray:none"
         id="path833" />
      <path
         sodipodi:nodetypes="sssss"
         d="m 92.540469,146.21734 c 2.121286,2.12128 2.121286,6.87857 0,8.99985 -1.960582,1.96059 -6.357464,1.96059 -8.318047,0 -2.121285,-2.12128 -2.121285,-6.87857 0,-8.99985 1.960583,-1.96059 6.357465,-1.96059 8.318047,0 z"
         style="font-style:normal;font-variant:normal;font-weight:normal;font-stretch:normal;font-size:69.9281px;font-family:impact;-inkscape-font-specification:impact;text-align:center;text-anchor:middle;fill:#ffffff;fill-opacity:1;stroke-width:0.364782;stroke-miterlimit:4;stroke-dasharray:none"
         id="path835" />
      <path
         sodipodi:nodetypes="sssss"
         d="m 109.51714,146.21734 c 2.12129,2.12128 2.12129,6.87857 0,8.99985 -1.96058,1.96059 -6.35746,1.96059 -8.31804,0 -2.12129,-2.12128 -2.12129,-6.87857 0,-8.99985 1.96058,-1.96059 6.35746,-1.96059 8.31804,0 z"
         style="font-style:normal;font-variant:normal;font-weight:normal;font-stretch:normal;font-size:69.9281px;font-family:impact;-inkscape-font-specification:impact;text-align:center;text-anchor:middle;fill:#ffffff;fill-opacity:1;stroke-width:0.364782;stroke-miterlimit:4;stroke-dasharray:none"
         id="path837" />
      <path
         sodipodi:nodetypes="sssss"
         d="m 126.49384,146.21734 c 2.12128,2.12128 2.12128,6.87857 0,8.99985 -1.96059,1.96059 -6.35746,1.96059 -8.31805,0 -2.12128,-2.12128 -2.12128,-6.87857 0,-8.99985 1.96059,-1.96059 6.35746,-1.96059 8.31805,0 z"
         style="font-style:normal;font-variant:normal;font-weight:normal;font-stretch:normal;font-size:69.9281px;font-family:impact;-inkscape-font-specification:impact;text-align:center;text-anchor:middle;fill:#ffffff;fill-opacity:1;stroke-width:0.364782;stroke-miterlimit:4;stroke-dasharray:none"
         id="path839" />
      <path
         d="m 156.74,137.98134 q -3.72176,0.0341 -5.59971,2.21939 -1.87795,2.18526 -1.87795,9.69706 0,5.80458 -0.40974,8.57029 -0.40973,2.79986 -2.04867,4.67781 -1.63894,1.87795 -4.23393,2.69742 -2.59499,0.85362 -7.34108,0.85362 h -1.80967 v -8.1947 q 4.7461,0 5.80458,-0.99019 1.09263,-0.9902 1.16092,-4.02906 0.20487,-8.74102 0.6146,-11.19943 0.44388,-2.49255 1.70723,-4.64366 1.29749,-2.15111 4.06321,-3.7559 -2.93644,-1.9121 -4.09735,-3.75591 -1.16092,-1.84381 -1.57066,-3.99491 -0.40973,-2.18526 -0.6146,-8.05812 -0.20487,-5.90702 -0.47802,-6.76063 -0.27316,-0.85362 -1.33164,-1.46822 -1.02434,-0.6146 -5.29241,-0.6146 v -8.16056 h 1.80966 q 5.46314,0 8.43371,1.26335 2.97058,1.22921 4.30222,4.06321 1.33164,2.834 1.33164,9.15075 0,7.23865 0.51217,9.1166 0.54631,1.87795 1.87795,3.4486 1.36578,1.53651 5.08754,1.67309 z"
         style="font-style:normal;font-variant:normal;font-weight:normal;font-stretch:normal;font-size:69.9281px;font-family:impact;-inkscape-font-specification:impact;text-align:center;text-anchor:middle;fill:#ffffff;fill-opacity:1;stroke-width:0.364782;stroke-miterlimit:4;stroke-dasharray:none"
         id="path841" />
    </g>
  </g>
</svg>
